<?xml version="1.0" encoding="UTF-8" standalone="no"?><svg xmlns="http://www.w3.org/2000/svg" xmlns:xlink="http://www.w3.org/1999/xlink" contentScriptType="application/ecmascript" contentStyleType="text/css" height="448px" preserveAspectRatio="none" style="width:638px;height:448px;" version="1.1" viewBox="0 0 638 448" width="638px" zoomAndPan="magnify"><defs><filter height="300%" id="fczk3plypjc74" width="300%" x="-1" y="-1"><feGaussianBlur result="blurOut" stdDeviation="1.0"/><feColorMatrix in="blurOut" result="blurOut2" type="matrix" values="0 0 0 0 0 0 0 0 0 0 0 0 0 0 0 0 0 0 .4 0"/><feOffset dx="2.0" dy="2.0" in="blurOut2" result="blurOut3"/><feBlend in="SourceGraphic" in2="blurOut3" mode="normal"/></filter></defs><g><!--MD5=[dd9221ee4b5d444c691ce94206d5cc4a]
cluster com.luckyba.myfile.audios--><polygon fill="#FFFFFF" filter="url(#fczk3plypjc74)" points="8,65,102,65,105.5,76.8047,530,76.8047,530,444.5,8,444.5,8,65" style="stroke:#000000;stroke-width:0.75;"/><line style="stroke:#000000;stroke-width:0.75;" x1="8" x2="105.5" y1="76.8047" y2="76.8047"/><text fill="#000000" font-family="sans-serif" font-size="7" font-weight="bold" lengthAdjust="spacing" textLength="91" x="10" y="73.2666">com.luckyba.myfile.audios</text><!--MD5=[9766f90424e1828585cf1d2dc254d514]
cluster androidx.fragment.app--><polygon fill="#FFFFFF" filter="url(#fczk3plypjc74)" points="542,110,624.5,110,628,121.8047,629.5,121.8047,629.5,160,542,160,542,110" style="stroke:#000000;stroke-width:0.75;"/><line style="stroke:#000000;stroke-width:0.75;" x1="542" x2="628" y1="121.8047" y2="121.8047"/><text fill="#000000" font-family="sans-serif" font-size="7" font-weight="bold" lengthAdjust="spacing" textLength="79.5" x="544" y="118.2666">androidx.fragment.app</text><!--MD5=[b44fd8e7153115a4ff7630ac829e4651]
cluster androidx.lifecycle--><polygon fill="#FFFFFF" filter="url(#fczk3plypjc74)" points="252.5,3,317.5,3,321,14.8047,322.5,14.8047,322.5,53,252.5,53,252.5,3" style="stroke:#000000;stroke-width:0.75;"/><line style="stroke:#000000;stroke-width:0.75;" x1="252.5" x2="321" y1="14.8047" y2="14.8047"/><text fill="#000000" font-family="sans-serif" font-size="7" font-weight="bold" lengthAdjust="spacing" textLength="62" x="254.5" y="11.2666">androidx.lifecycle</text><!--MD5=[cec50d417faceb8ce5e46ab67016b7f4]
class com.luckyba.myfile.audios.AudiosListAdapter--><rect codeLine="1" fill="#FEFECE" filter="url(#fczk3plypjc74)" height="65.5078" id="com.luckyba.myfile.audios.AudiosListAdapter" style="stroke:#A80036;stroke-width:0.75;" width="158" x="110.5" y="268.5"/><ellipse cx="162.375" cy="276.5" fill="#ADD1B2" rx="5.5" ry="5.5" style="stroke:#A80036;stroke-width:0.5;"/><path d="M163.375,274.75 Q163.4766,274.5 163.5938,274.375 Q163.7109,274.25 163.8438,274.25 Q164.0781,274.25 164.2266,274.3906 Q164.375,274.5313 164.375,274.8594 L164.375,275.6406 Q164.375,275.9688 164.2344,276.1094 Q164.0938,276.25 163.875,276.25 Q163.6797,276.25 163.5547,276.1641 Q163.4297,276.0781 163.375,275.8516 Q163.3516,275.6953 163.2656,275.6094 Q163.1094,275.4453 162.8281,275.3516 Q162.5469,275.25 162.2656,275.25 Q161.9141,275.25 161.6172,275.3906 Q161.3281,275.5313 161.1016,275.8438 Q160.875,276.1563 160.875,276.5859 L160.875,277.0469 Q160.875,277.5625 161.2969,277.9063 Q161.7188,278.25 162.4688,278.25 Q162.9141,278.25 163.2266,278.1484 Q163.4063,278.0938 163.6094,277.9141 Q163.7422,277.8125 163.8125,277.7813 Q163.8828,277.75 163.9688,277.75 Q164.1328,277.75 164.25,277.8828 Q164.375,278.0078 164.375,278.1875 Q164.375,278.3594 164.2031,278.5625 Q163.9531,278.8594 163.5547,279.0234 Q163.0313,279.25 162.3906,279.25 Q161.6406,279.25 161.0391,278.9531 Q160.5547,278.7188 160.2109,278.2109 Q159.875,277.7031 159.875,277.1016 L159.875,276.5547 Q159.875,275.9297 160.1719,275.3828 Q160.4766,274.8359 161,274.5469 Q161.5313,274.25 162.125,274.25 Q162.4844,274.25 162.7969,274.375 Q163.1094,274.5 163.375,274.75 Z " fill="#000000"/><text fill="#000000" font-family="sans-serif" font-size="6" lengthAdjust="spacing" textLength="50" x="172.625" y="278.9551">AudiosListAdapter</text><line style="stroke:#A80036;stroke-width:0.75;" x1="111" x2="268" y1="284.5" y2="284.5"/><rect fill="none" height="3" style="stroke:#C82930;stroke-width:0.5;" width="3" x="114.5" y="288.5"/><text fill="#000000" font-family="sans-serif" font-size="5.5" lengthAdjust="spacing" textLength="122" x="120.5" y="292.2095">ArrayList&lt;MediaFileListModel&gt; mediaFileListModels</text><rect fill="none" height="3" style="stroke:#C82930;stroke-width:0.5;" width="3" x="114.5" y="295.418"/><text fill="#000000" font-family="sans-serif" font-size="5.5" lengthAdjust="spacing" textLength="97" x="120.5" y="299.1274">CommonListener.ClickListener mListener</text><line style="stroke:#A80036;stroke-width:0.75;" x1="111" x2="268" y1="302.3359" y2="302.3359"/><ellipse cx="116" cy="307.8359" fill="#84BE84" rx="1.5" ry="1.5" style="stroke:#038048;stroke-width:0.5;"/><text fill="#000000" font-family="sans-serif" font-size="5.5" lengthAdjust="spacing" textLength="107" x="120.5" y="310.0454">void setData(ArrayList&lt;MediaFileListModel&gt;)</text><ellipse cx="116" cy="314.7539" fill="#84BE84" rx="1.5" ry="1.5" style="stroke:#038048;stroke-width:0.5;"/><text fill="#000000" font-family="sans-serif" font-size="5.5" lengthAdjust="spacing" textLength="145" x="120.5" y="316.9634">AudiosListViewHolder onCreateViewHolder(ViewGroup,int)</text><ellipse cx="116" cy="321.6719" fill="#84BE84" rx="1.5" ry="1.5" style="stroke:#038048;stroke-width:0.5;"/><text fill="#000000" font-family="sans-serif" font-size="5.5" lengthAdjust="spacing" textLength="121.5" x="120.5" y="323.8813">void onBindViewHolder(AudiosListViewHolder,int)</text><ellipse cx="116" cy="328.5898" fill="#84BE84" rx="1.5" ry="1.5" style="stroke:#038048;stroke-width:0.5;"/><text fill="#000000" font-family="sans-serif" font-size="5.5" lengthAdjust="spacing" textLength="42" x="120.5" y="330.7993">int getItemCount()</text><!--MD5=[e5eecbbb6fe2a6fff6b3dd489ffbb729]
class com.luckyba.myfile.audios.AudiosViewManager--><rect codeLine="9" fill="#FEFECE" filter="url(#fczk3plypjc74)" height="113.9336" id="com.luckyba.myfile.audios.AudiosViewManager" style="stroke:#A80036;stroke-width:0.75;" width="135" x="387" y="83"/><ellipse cx="424.375" cy="91" fill="#ADD1B2" rx="5.5" ry="5.5" style="stroke:#A80036;stroke-width:0.5;"/><path d="M425.375,89.25 Q425.4766,89 425.5938,88.875 Q425.7109,88.75 425.8438,88.75 Q426.0781,88.75 426.2266,88.8906 Q426.375,89.0313 426.375,89.3594 L426.375,90.1406 Q426.375,90.4688 426.2344,90.6094 Q426.0938,90.75 425.875,90.75 Q425.6797,90.75 425.5547,90.6641 Q425.4297,90.5781 425.375,90.3516 Q425.3516,90.1953 425.2656,90.1094 Q425.1094,89.9453 424.8281,89.8516 Q424.5469,89.75 424.2656,89.75 Q423.9141,89.75 423.6172,89.8906 Q423.3281,90.0313 423.1016,90.3438 Q422.875,90.6563 422.875,91.0859 L422.875,91.5469 Q422.875,92.0625 423.2969,92.4063 Q423.7188,92.75 424.4688,92.75 Q424.9141,92.75 425.2266,92.6484 Q425.4063,92.5938 425.6094,92.4141 Q425.7422,92.3125 425.8125,92.2813 Q425.8828,92.25 425.9688,92.25 Q426.1328,92.25 426.25,92.3828 Q426.375,92.5078 426.375,92.6875 Q426.375,92.8594 426.2031,93.0625 Q425.9531,93.3594 425.5547,93.5234 Q425.0313,93.75 424.3906,93.75 Q423.6406,93.75 423.0391,93.4531 Q422.5547,93.2188 422.2109,92.7109 Q421.875,92.2031 421.875,91.6016 L421.875,91.0547 Q421.875,90.4297 422.1719,89.8828 Q422.4766,89.3359 423,89.0469 Q423.5313,88.75 424.125,88.75 Q424.4844,88.75 424.7969,88.875 Q425.1094,89 425.375,89.25 Z " fill="#000000"/><text fill="#000000" font-family="sans-serif" font-size="6" lengthAdjust="spacing" textLength="56" x="434.625" y="93.4551">AudiosViewManager</text><line style="stroke:#A80036;stroke-width:0.75;" x1="387.5" x2="521.5" y1="99" y2="99"/><rect fill="none" height="3" style="stroke:#C82930;stroke-width:0.5;" width="3" x="391" y="103"/><text fill="#000000" font-family="sans-serif" font-size="5.5" lengthAdjust="spacing" textLength="42.5" x="397" y="106.7095">View mRootView</text><rect fill="none" height="3" style="stroke:#C82930;stroke-width:0.5;" width="3" x="391" y="109.918"/><text fill="#000000" font-family="sans-serif" font-size="5.5" lengthAdjust="spacing" textLength="88.5" x="397" y="113.6274">AudiosViewModel audiosViewModel</text><rect fill="none" height="3" style="stroke:#C82930;stroke-width:0.5;" width="3" x="391" y="116.8359"/><text fill="#000000" font-family="sans-serif" font-size="5.5" lengthAdjust="spacing" textLength="90.5" x="397" y="120.5454">AudiosListAdapter audiosListAdapter</text><rect fill="none" height="3" style="stroke:#C82930;stroke-width:0.5;" width="3" x="391" y="123.7539"/><text fill="#000000" font-family="sans-serif" font-size="5.5" lengthAdjust="spacing" textLength="36.5" x="397" y="127.4634">Activity activity</text><rect fill="none" height="3" style="stroke:#C82930;stroke-width:0.5;" width="3" x="391" y="130.6719"/><text fill="#000000" font-family="sans-serif" font-size="5.5" lengthAdjust="spacing" textLength="69" x="397" y="134.3813">RecyclerView recyclerView</text><rect fill="none" height="3" style="stroke:#C82930;stroke-width:0.5;" width="3" x="391" y="137.5898"/><text fill="#000000" font-family="sans-serif" font-size="5.5" lengthAdjust="spacing" textLength="122" x="397" y="141.2993">ArrayList&lt;MediaFileListModel&gt; mediaFileListModels</text><rect fill="none" height="3" style="stroke:#C82930;stroke-width:0.5;" width="3" x="391" y="144.5078"/><text fill="#000000" font-family="sans-serif" font-size="5.5" lengthAdjust="spacing" textLength="69.5" x="397" y="148.2173">LinearLayout noMediaLayout</text><rect fill="none" height="3" style="stroke:#C82930;stroke-width:0.5;" width="3" x="391" y="151.4258"/><text fill="#000000" font-family="sans-serif" font-size="5.5" lengthAdjust="spacing" textLength="59.5" x="397" y="155.1353">MediaPlayer mediaPlayer</text><line style="stroke:#A80036;stroke-width:0.75;" x1="387.5" x2="521.5" y1="158.3438" y2="158.3438"/><rect fill="#F24D5C" height="3" style="stroke:#C82930;stroke-width:0.5;" width="3" x="391" y="162.3438"/><text fill="#000000" font-family="sans-serif" font-size="5.5" lengthAdjust="spacing" textLength="22" x="397" y="166.0532">void init()</text><rect fill="#F24D5C" height="3" style="stroke:#C82930;stroke-width:0.5;" width="3" x="391" y="169.2617"/><text fill="#000000" font-family="sans-serif" font-size="5.5" lengthAdjust="spacing" textLength="88" x="397" y="172.9712">void showAudioPlayer(String,String)</text><rect fill="#F24D5C" height="3" style="stroke:#C82930;stroke-width:0.5;" width="3" x="391" y="176.1797"/><text fill="#000000" font-family="sans-serif" font-size="5.5" lengthAdjust="spacing" textLength="45.5" x="397" y="179.8892">void getMusicList()</text><ellipse cx="392.5" cy="184.5977" fill="#84BE84" rx="1.5" ry="1.5" style="stroke:#038048;stroke-width:0.5;"/><text fill="#000000" font-family="sans-serif" font-size="5.5" lengthAdjust="spacing" textLength="62" x="397" y="186.8071">void onItemClick(View,int)</text><ellipse cx="392.5" cy="191.5156" fill="#84BE84" rx="1.5" ry="1.5" style="stroke:#038048;stroke-width:0.5;"/><text fill="#000000" font-family="sans-serif" font-size="5.5" lengthAdjust="spacing" textLength="74" x="397" y="193.7251">void onItemLongClick(View,int)</text><!--MD5=[de9040083b96c5694bc3264087f13820]
class com.luckyba.myfile.audios.AudiosListFragment--><rect codeLine="24" fill="#FEFECE" filter="url(#fczk3plypjc74)" height="148.5234" id="com.luckyba.myfile.audios.AudiosListFragment" style="stroke:#A80036;stroke-width:0.75;" width="147" x="327.5" y="227"/><ellipse cx="371.125" cy="235" fill="#ADD1B2" rx="5.5" ry="5.5" style="stroke:#A80036;stroke-width:0.5;"/><path d="M372.125,233.25 Q372.2266,233 372.3438,232.875 Q372.4609,232.75 372.5938,232.75 Q372.8281,232.75 372.9766,232.8906 Q373.125,233.0313 373.125,233.3594 L373.125,234.1406 Q373.125,234.4688 372.9844,234.6094 Q372.8438,234.75 372.625,234.75 Q372.4297,234.75 372.3047,234.6641 Q372.1797,234.5781 372.125,234.3516 Q372.1016,234.1953 372.0156,234.1094 Q371.8594,233.9453 371.5781,233.8516 Q371.2969,233.75 371.0156,233.75 Q370.6641,233.75 370.3672,233.8906 Q370.0781,234.0313 369.8516,234.3438 Q369.625,234.6563 369.625,235.0859 L369.625,235.5469 Q369.625,236.0625 370.0469,236.4063 Q370.4688,236.75 371.2188,236.75 Q371.6641,236.75 371.9766,236.6484 Q372.1563,236.5938 372.3594,236.4141 Q372.4922,236.3125 372.5625,236.2813 Q372.6328,236.25 372.7188,236.25 Q372.8828,236.25 373,236.3828 Q373.125,236.5078 373.125,236.6875 Q373.125,236.8594 372.9531,237.0625 Q372.7031,237.3594 372.3047,237.5234 Q371.7813,237.75 371.1406,237.75 Q370.3906,237.75 369.7891,237.4531 Q369.3047,237.2188 368.9609,236.7109 Q368.625,236.2031 368.625,235.6016 L368.625,235.0547 Q368.625,234.4297 368.9219,233.8828 Q369.2266,233.3359 369.75,233.0469 Q370.2813,232.75 370.875,232.75 Q371.2344,232.75 371.5469,232.875 Q371.8594,233 372.125,233.25 Z " fill="#000000"/><text fill="#000000" font-family="sans-serif" font-size="6" lengthAdjust="spacing" textLength="55.5" x="381.375" y="237.4551">AudiosListFragment</text><line style="stroke:#A80036;stroke-width:0.75;" x1="328" x2="474" y1="243" y2="243"/><rect fill="none" height="3" style="stroke:#C82930;stroke-width:0.5;" width="3" x="331.5" y="247"/><text fill="#000000" font-family="sans-serif" font-size="5.5" lengthAdjust="spacing" text-decoration="underline" textLength="51.5" x="337.5" y="250.7095">String ARG_PARAM1</text><rect fill="none" height="3" style="stroke:#C82930;stroke-width:0.5;" width="3" x="331.5" y="253.918"/><text fill="#000000" font-family="sans-serif" font-size="5.5" lengthAdjust="spacing" text-decoration="underline" textLength="51.5" x="337.5" y="257.6274">String ARG_PARAM2</text><rect fill="none" height="3" style="stroke:#C82930;stroke-width:0.5;" width="3" x="331.5" y="260.8359"/><text fill="#000000" font-family="sans-serif" font-size="5.5" lengthAdjust="spacing" textLength="42.5" x="337.5" y="264.5454">View mRootView</text><rect fill="none" height="3" style="stroke:#C82930;stroke-width:0.5;" width="3" x="331.5" y="267.7539"/><text fill="#000000" font-family="sans-serif" font-size="5.5" lengthAdjust="spacing" textLength="99" x="337.5" y="271.4634">OnFragmentInteractionListener mListener</text><rect fill="none" height="3" style="stroke:#C82930;stroke-width:0.5;" width="3" x="331.5" y="274.6719"/><text fill="#000000" font-family="sans-serif" font-size="5.5" lengthAdjust="spacing" textLength="102.5" x="337.5" y="278.3813">AudiosViewManager audiosViewManager</text><rect fill="none" height="3" style="stroke:#C82930;stroke-width:0.5;" width="3" x="331.5" y="281.5898"/><text fill="#000000" font-family="sans-serif" font-size="5.5" lengthAdjust="spacing" textLength="90.5" x="337.5" y="285.2993">AudiosListAdapter audiosListAdapter</text><rect fill="none" height="3" style="stroke:#C82930;stroke-width:0.5;" width="3" x="331.5" y="288.5078"/><text fill="#000000" font-family="sans-serif" font-size="5.5" lengthAdjust="spacing" textLength="88.5" x="337.5" y="292.2173">AudiosViewModel audiosViewModel</text><line style="stroke:#A80036;stroke-width:0.75;" x1="328" x2="474" y1="295.4258" y2="295.4258"/><ellipse cx="333" cy="300.9258" fill="#84BE84" rx="1.5" ry="1.5" style="stroke:#038048;stroke-width:0.5;"/><text fill="#000000" font-family="sans-serif" font-size="5.5" lengthAdjust="spacing" text-decoration="underline" textLength="114.5" x="337.5" y="303.1353">AudiosListFragment newInstance(String,String)</text><ellipse cx="333" cy="307.8438" fill="#84BE84" rx="1.5" ry="1.5" style="stroke:#038048;stroke-width:0.5;"/><text fill="#000000" font-family="sans-serif" font-size="5.5" lengthAdjust="spacing" textLength="54" x="337.5" y="310.0532">void onCreate(Bundle)</text><ellipse cx="333" cy="314.7617" fill="#84BE84" rx="1.5" ry="1.5" style="stroke:#038048;stroke-width:0.5;"/><text fill="#000000" font-family="sans-serif" font-size="5.5" lengthAdjust="spacing" textLength="134" x="337.5" y="316.9712">View onCreateView(LayoutInflater,ViewGroup,Bundle)</text><ellipse cx="333" cy="321.6797" fill="#84BE84" rx="1.5" ry="1.5" style="stroke:#038048;stroke-width:0.5;"/><text fill="#000000" font-family="sans-serif" font-size="5.5" lengthAdjust="spacing" textLength="84.5" x="337.5" y="323.8892">void onViewCreated(View,Bundle)</text><ellipse cx="333" cy="328.5977" fill="#84BE84" rx="1.5" ry="1.5" style="stroke:#038048;stroke-width:0.5;"/><text fill="#000000" font-family="sans-serif" font-size="5.5" lengthAdjust="spacing" textLength="63.5" x="337.5" y="330.8071">void onButtonPressed(Uri)</text><ellipse cx="333" cy="335.5156" fill="#84BE84" rx="1.5" ry="1.5" style="stroke:#038048;stroke-width:0.5;"/><text fill="#000000" font-family="sans-serif" font-size="5.5" lengthAdjust="spacing" textLength="56" x="337.5" y="337.7251">void onAttach(Context)</text><ellipse cx="333" cy="342.4336" fill="#84BE84" rx="1.5" ry="1.5" style="stroke:#038048;stroke-width:0.5;"/><text fill="#000000" font-family="sans-serif" font-size="5.5" lengthAdjust="spacing" textLength="38.5" x="337.5" y="344.6431">void onDetach()</text><ellipse cx="333" cy="349.3516" fill="#84BE84" rx="1.5" ry="1.5" style="stroke:#038048;stroke-width:0.5;"/><text fill="#000000" font-family="sans-serif" font-size="5.5" lengthAdjust="spacing" textLength="40.5" x="337.5" y="351.561">void onDestroy()</text><ellipse cx="333" cy="356.2695" fill="#84BE84" rx="1.5" ry="1.5" style="stroke:#038048;stroke-width:0.5;"/><text fill="#000000" font-family="sans-serif" font-size="5.5" lengthAdjust="spacing" textLength="41" x="337.5" y="358.479">void onResume()</text><ellipse cx="333" cy="363.1875" fill="#84BE84" rx="1.5" ry="1.5" style="stroke:#038048;stroke-width:0.5;"/><text fill="#000000" font-family="sans-serif" font-size="5.5" lengthAdjust="spacing" textLength="52.5" x="337.5" y="365.397">void onClick(View,int)</text><ellipse cx="333" cy="370.1055" fill="#84BE84" rx="1.5" ry="1.5" style="stroke:#038048;stroke-width:0.5;"/><text fill="#000000" font-family="sans-serif" font-size="5.5" lengthAdjust="spacing" textLength="64.5" x="337.5" y="372.3149">void onLongClick(View,int)</text><!--MD5=[1d02974d95fcb761335398ac7209c062]
class com.luckyba.myfile.audios.AudiosListFragment.OnFragmentInteractionListener--><rect codeLine="44" fill="#FEFECE" filter="url(#fczk3plypjc74)" height="30.918" id="com.luckyba.myfile.audios.AudiosListFragment.OnFragmentInteractionListener" style="stroke:#A80036;stroke-width:0.75;" width="158" x="322" y="405.5"/><ellipse cx="329.5" cy="413.5" fill="#B4A7E5" rx="5.5" ry="5.5" style="stroke:#A80036;stroke-width:0.5;"/><path d="M330,412 L330,415 L331,415 L331.2422,415 L331.5,415.3125 L331.5,415.5 L331.5,415.6875 L331.2422,416 L331,416 L328,416 L327.7578,416 L327.5,415.6875 L327.5,415.5 L327.5,415.3125 L327.7578,415 L328,415 L329,415 L329,412 L328,412 L327.7578,412 L327.5,411.6875 L327.5,411.5 L327.5,411.3125 L327.7578,411 L328,411 L331,411 L331.2422,411 L331.5,411.3125 L331.5,411.5 L331.5,411.6875 L331.2422,412 L331,412 L330,412 Z " fill="#000000"/><text fill="#000000" font-family="sans-serif" font-size="6" font-style="italic" lengthAdjust="spacing" textLength="142" x="336.5" y="415.9551">AudiosListFragment.OnFragmentInteractionListener</text><line style="stroke:#A80036;stroke-width:0.75;" x1="322.5" x2="479.5" y1="421.5" y2="421.5"/><line style="stroke:#A80036;stroke-width:0.75;" x1="322.5" x2="479.5" y1="425.5" y2="425.5"/><polygon fill="#4177AF" points="327.5,429,325.5,432,329.5,432" style="stroke:#1963A0;stroke-width:0.5;"/><text fill="#000000" font-family="sans-serif" font-size="5.5" lengthAdjust="spacing" textLength="75.5" x="332" y="433.2095">void onFragmentInteraction(Uri)</text><!--MD5=[8eb97ef46fc1eb59316937c9faf2c47b]
class com.luckyba.myfile.audios.AudiosListViewHolder--><rect codeLine="47" fill="#FEFECE" filter="url(#fczk3plypjc74)" height="37.8359" id="com.luckyba.myfile.audios.AudiosListViewHolder" style="stroke:#A80036;stroke-width:0.75;" width="76.5" x="16.25" y="282.25"/><ellipse cx="23.75" cy="290.25" fill="#ADD1B2" rx="5.5" ry="5.5" style="stroke:#A80036;stroke-width:0.5;"/><path d="M24.75,288.5 Q24.8516,288.25 24.9688,288.125 Q25.0859,288 25.2188,288 Q25.4531,288 25.6016,288.1406 Q25.75,288.2813 25.75,288.6094 L25.75,289.3906 Q25.75,289.7188 25.6094,289.8594 Q25.4688,290 25.25,290 Q25.0547,290 24.9297,289.9141 Q24.8047,289.8281 24.75,289.6016 Q24.7266,289.4453 24.6406,289.3594 Q24.4844,289.1953 24.2031,289.1016 Q23.9219,289 23.6406,289 Q23.2891,289 22.9922,289.1406 Q22.7031,289.2813 22.4766,289.5938 Q22.25,289.9063 22.25,290.3359 L22.25,290.7969 Q22.25,291.3125 22.6719,291.6563 Q23.0938,292 23.8438,292 Q24.2891,292 24.6016,291.8984 Q24.7813,291.8438 24.9844,291.6641 Q25.1172,291.5625 25.1875,291.5313 Q25.2578,291.5 25.3438,291.5 Q25.5078,291.5 25.625,291.6328 Q25.75,291.7578 25.75,291.9375 Q25.75,292.1094 25.5781,292.3125 Q25.3281,292.6094 24.9297,292.7734 Q24.4063,293 23.7656,293 Q23.0156,293 22.4141,292.7031 Q21.9297,292.4688 21.5859,291.9609 Q21.25,291.4531 21.25,290.8516 L21.25,290.3047 Q21.25,289.6797 21.5469,289.1328 Q21.8516,288.5859 22.375,288.2969 Q22.9063,288 23.5,288 Q23.8594,288 24.1719,288.125 Q24.4844,288.25 24.75,288.5 Z " fill="#000000"/><text fill="#000000" font-family="sans-serif" font-size="6" lengthAdjust="spacing" textLength="60.5" x="30.75" y="292.7051">AudiosListViewHolder</text><line style="stroke:#A80036;stroke-width:0.75;" x1="16.75" x2="92.25" y1="298.25" y2="298.25"/><ellipse cx="21.75" cy="303.75" fill="none" rx="1.5" ry="1.5" style="stroke:#038048;stroke-width:0.5;"/><text fill="#000000" font-family="sans-serif" font-size="5.5" lengthAdjust="spacing" textLength="51.5" x="26.25" y="305.9595">TextView lblFileName</text><ellipse cx="21.75" cy="310.668" fill="none" rx="1.5" ry="1.5" style="stroke:#038048;stroke-width:0.5;"/><text fill="#000000" font-family="sans-serif" font-size="5.5" lengthAdjust="spacing" textLength="56" x="26.25" y="312.8774">ImageView imgItemIcon</text><line style="stroke:#A80036;stroke-width:0.75;" x1="16.75" x2="92.25" y1="316.0859" y2="316.0859"/><!--MD5=[8918521bb87481e56ab29298a023229b]
class com.luckyba.myfile.audios.AudiosViewModel--><rect codeLine="51" fill="#FEFECE" filter="url(#fczk3plypjc74)" height="37.8359" id="com.luckyba.myfile.audios.AudiosViewModel" style="stroke:#A80036;stroke-width:0.75;" width="164" x="205.5" y="121"/><ellipse cx="261.125" cy="129" fill="#ADD1B2" rx="5.5" ry="5.5" style="stroke:#A80036;stroke-width:0.5;"/><path d="M262.125,127.25 Q262.2266,127 262.3438,126.875 Q262.4609,126.75 262.5938,126.75 Q262.8281,126.75 262.9766,126.8906 Q263.125,127.0313 263.125,127.3594 L263.125,128.1406 Q263.125,128.4688 262.9844,128.6094 Q262.8438,128.75 262.625,128.75 Q262.4297,128.75 262.3047,128.6641 Q262.1797,128.5781 262.125,128.3516 Q262.1016,128.1953 262.0156,128.1094 Q261.8594,127.9453 261.5781,127.8516 Q261.2969,127.75 261.0156,127.75 Q260.6641,127.75 260.3672,127.8906 Q260.0781,128.0313 259.8516,128.3438 Q259.625,128.6563 259.625,129.0859 L259.625,129.5469 Q259.625,130.0625 260.0469,130.4063 Q260.4688,130.75 261.2188,130.75 Q261.6641,130.75 261.9766,130.6484 Q262.1563,130.5938 262.3594,130.4141 Q262.4922,130.3125 262.5625,130.2813 Q262.6328,130.25 262.7188,130.25 Q262.8828,130.25 263,130.3828 Q263.125,130.5078 263.125,130.6875 Q263.125,130.8594 262.9531,131.0625 Q262.7031,131.3594 262.3047,131.5234 Q261.7813,131.75 261.1406,131.75 Q260.3906,131.75 259.7891,131.4531 Q259.3047,131.2188 258.9609,130.7109 Q258.625,130.2031 258.625,129.6016 L258.625,129.0547 Q258.625,128.4297 258.9219,127.8828 Q259.2266,127.3359 259.75,127.0469 Q260.2813,126.75 260.875,126.75 Q261.2344,126.75 261.5469,126.875 Q261.8594,127 262.125,127.25 Z " fill="#000000"/><text fill="#000000" font-family="sans-serif" font-size="6" lengthAdjust="spacing" textLength="48.5" x="271.375" y="131.4551">AudiosViewModel</text><line style="stroke:#A80036;stroke-width:0.75;" x1="206" x2="369" y1="137" y2="137"/><rect fill="none" height="3" style="stroke:#C82930;stroke-width:0.5;" width="3" x="209.5" y="141"/><text fill="#000000" font-family="sans-serif" font-size="5.5" lengthAdjust="spacing" textLength="60" x="215.5" y="144.7095">FileRepository repository</text><line style="stroke:#A80036;stroke-width:0.75;" x1="206" x2="369" y1="147.918" y2="147.918"/><ellipse cx="211" cy="153.418" fill="#84BE84" rx="1.5" ry="1.5" style="stroke:#038048;stroke-width:0.5;"/><text fill="#000000" font-family="sans-serif" font-size="5.5" lengthAdjust="spacing" textLength="151" x="215.5" y="155.6274">ArrayList&lt;MediaFileListModel&gt; getALLAudios(DictionaryModel)</text><!--MD5=[8c81253183a4fca1070ae49fce0465c0]
class com.luckyba.myfile.audios.Adapter--><rect fill="#FEFECE" filter="url(#fczk3plypjc74)" height="24" id="com.luckyba.myfile.audios.Adapter" style="stroke:#A80036;stroke-width:0.75;" width="37" x="81.5" y="128"/><ellipse cx="89" cy="136" fill="#ADD1B2" rx="5.5" ry="5.5" style="stroke:#A80036;stroke-width:0.5;"/><path d="M90,134.25 Q90.1016,134 90.2188,133.875 Q90.3359,133.75 90.4688,133.75 Q90.7031,133.75 90.8516,133.8906 Q91,134.0313 91,134.3594 L91,135.1406 Q91,135.4688 90.8594,135.6094 Q90.7188,135.75 90.5,135.75 Q90.3047,135.75 90.1797,135.6641 Q90.0547,135.5781 90,135.3516 Q89.9766,135.1953 89.8906,135.1094 Q89.7344,134.9453 89.4531,134.8516 Q89.1719,134.75 88.8906,134.75 Q88.5391,134.75 88.2422,134.8906 Q87.9531,135.0313 87.7266,135.3438 Q87.5,135.6563 87.5,136.0859 L87.5,136.5469 Q87.5,137.0625 87.9219,137.4063 Q88.3438,137.75 89.0938,137.75 Q89.5391,137.75 89.8516,137.6484 Q90.0313,137.5938 90.2344,137.4141 Q90.3672,137.3125 90.4375,137.2813 Q90.5078,137.25 90.5938,137.25 Q90.7578,137.25 90.875,137.3828 Q91,137.5078 91,137.6875 Q91,137.8594 90.8281,138.0625 Q90.5781,138.3594 90.1797,138.5234 Q89.6563,138.75 89.0156,138.75 Q88.2656,138.75 87.6641,138.4531 Q87.1797,138.2188 86.8359,137.7109 Q86.5,137.2031 86.5,136.6016 L86.5,136.0547 Q86.5,135.4297 86.7969,134.8828 Q87.1016,134.3359 87.625,134.0469 Q88.1563,133.75 88.75,133.75 Q89.1094,133.75 89.4219,133.875 Q89.7344,134 90,134.25 Z " fill="#000000"/><text fill="#000000" font-family="sans-serif" font-size="6" lengthAdjust="spacing" textLength="21" x="96" y="138.4551">Adapter</text><line style="stroke:#A80036;stroke-width:0.75;" x1="82" x2="118" y1="144" y2="144"/><line style="stroke:#A80036;stroke-width:0.75;" x1="82" x2="118" y1="148" y2="148"/><!--MD5=[57714b40ea9514c3cc33aa1f06b4fd32]
class com.luckyba.myfile.audios.ClickListener--><rect fill="#FEFECE" filter="url(#fczk3plypjc74)" height="24" id="com.luckyba.myfile.audios.ClickListener" style="stroke:#A80036;stroke-width:0.75;" width="52" x="136" y="128"/><ellipse cx="143.5" cy="136" fill="#ADD1B2" rx="5.5" ry="5.5" style="stroke:#A80036;stroke-width:0.5;"/><path d="M144.5,134.25 Q144.6016,134 144.7188,133.875 Q144.8359,133.75 144.9688,133.75 Q145.2031,133.75 145.3516,133.8906 Q145.5,134.0313 145.5,134.3594 L145.5,135.1406 Q145.5,135.4688 145.3594,135.6094 Q145.2188,135.75 145,135.75 Q144.8047,135.75 144.6797,135.6641 Q144.5547,135.5781 144.5,135.3516 Q144.4766,135.1953 144.3906,135.1094 Q144.2344,134.9453 143.9531,134.8516 Q143.6719,134.75 143.3906,134.75 Q143.0391,134.75 142.7422,134.8906 Q142.4531,135.0313 142.2266,135.3438 Q142,135.6563 142,136.0859 L142,136.5469 Q142,137.0625 142.4219,137.4063 Q142.8438,137.75 143.5938,137.75 Q144.0391,137.75 144.3516,137.6484 Q144.5313,137.5938 144.7344,137.4141 Q144.8672,137.3125 144.9375,137.2813 Q145.0078,137.25 145.0938,137.25 Q145.2578,137.25 145.375,137.3828 Q145.5,137.5078 145.5,137.6875 Q145.5,137.8594 145.3281,138.0625 Q145.0781,138.3594 144.6797,138.5234 Q144.1563,138.75 143.5156,138.75 Q142.7656,138.75 142.1641,138.4531 Q141.6797,138.2188 141.3359,137.7109 Q141,137.2031 141,136.6016 L141,136.0547 Q141,135.4297 141.2969,134.8828 Q141.6016,134.3359 142.125,134.0469 Q142.6563,133.75 143.25,133.75 Q143.6094,133.75 143.9219,133.875 Q144.2344,134 144.5,134.25 Z " fill="#000000"/><text fill="#000000" font-family="sans-serif" font-size="6" lengthAdjust="spacing" textLength="36" x="150.5" y="138.4551">ClickListener</text><line style="stroke:#A80036;stroke-width:0.75;" x1="136.5" x2="187.5" y1="144" y2="144"/><line style="stroke:#A80036;stroke-width:0.75;" x1="136.5" x2="187.5" y1="148" y2="148"/><!--MD5=[be72d11142950b61aeefbfa6c8dbc508]
class com.luckyba.myfile.audios.ViewHolder--><rect fill="#FEFECE" filter="url(#fczk3plypjc74)" height="24" id="com.luckyba.myfile.audios.ViewHolder" style="stroke:#A80036;stroke-width:0.75;" width="47.5" x="16.25" y="128"/><ellipse cx="23.75" cy="136" fill="#ADD1B2" rx="5.5" ry="5.5" style="stroke:#A80036;stroke-width:0.5;"/><path d="M24.75,134.25 Q24.8516,134 24.9688,133.875 Q25.0859,133.75 25.2188,133.75 Q25.4531,133.75 25.6016,133.8906 Q25.75,134.0313 25.75,134.3594 L25.75,135.1406 Q25.75,135.4688 25.6094,135.6094 Q25.4688,135.75 25.25,135.75 Q25.0547,135.75 24.9297,135.6641 Q24.8047,135.5781 24.75,135.3516 Q24.7266,135.1953 24.6406,135.1094 Q24.4844,134.9453 24.2031,134.8516 Q23.9219,134.75 23.6406,134.75 Q23.2891,134.75 22.9922,134.8906 Q22.7031,135.0313 22.4766,135.3438 Q22.25,135.6563 22.25,136.0859 L22.25,136.5469 Q22.25,137.0625 22.6719,137.4063 Q23.0938,137.75 23.8438,137.75 Q24.2891,137.75 24.6016,137.6484 Q24.7813,137.5938 24.9844,137.4141 Q25.1172,137.3125 25.1875,137.2813 Q25.2578,137.25 25.3438,137.25 Q25.5078,137.25 25.625,137.3828 Q25.75,137.5078 25.75,137.6875 Q25.75,137.8594 25.5781,138.0625 Q25.3281,138.3594 24.9297,138.5234 Q24.4063,138.75 23.7656,138.75 Q23.0156,138.75 22.4141,138.4531 Q21.9297,138.2188 21.5859,137.7109 Q21.25,137.2031 21.25,136.6016 L21.25,136.0547 Q21.25,135.4297 21.5469,134.8828 Q21.8516,134.3359 22.375,134.0469 Q22.9063,133.75 23.5,133.75 Q23.8594,133.75 24.1719,133.875 Q24.4844,134 24.75,134.25 Z " fill="#000000"/><text fill="#000000" font-family="sans-serif" font-size="6" lengthAdjust="spacing" textLength="31.5" x="30.75" y="138.4551">ViewHolder</text><line style="stroke:#A80036;stroke-width:0.75;" x1="16.75" x2="63.25" y1="144" y2="144"/><line style="stroke:#A80036;stroke-width:0.75;" x1="16.75" x2="63.25" y1="148" y2="148"/><!--MD5=[4ef56d7331cec24f2808280c59a4eb97]
class androidx.fragment.app.Fragment--><rect fill="#FEFECE" filter="url(#fczk3plypjc74)" height="24" id="androidx.fragment.app.Fragment" style="stroke:#A80036;stroke-width:0.75;" width="42.5" x="550.25" y="128"/><ellipse cx="557.75" cy="136" fill="#ADD1B2" rx="5.5" ry="5.5" style="stroke:#A80036;stroke-width:0.5;"/><path d="M558.75,134.25 Q558.8516,134 558.9688,133.875 Q559.0859,133.75 559.2188,133.75 Q559.4531,133.75 559.6016,133.8906 Q559.75,134.0313 559.75,134.3594 L559.75,135.1406 Q559.75,135.4688 559.6094,135.6094 Q559.4688,135.75 559.25,135.75 Q559.0547,135.75 558.9297,135.6641 Q558.8047,135.5781 558.75,135.3516 Q558.7266,135.1953 558.6406,135.1094 Q558.4844,134.9453 558.2031,134.8516 Q557.9219,134.75 557.6406,134.75 Q557.2891,134.75 556.9922,134.8906 Q556.7031,135.0313 556.4766,135.3438 Q556.25,135.6563 556.25,136.0859 L556.25,136.5469 Q556.25,137.0625 556.6719,137.4063 Q557.0938,137.75 557.8438,137.75 Q558.2891,137.75 558.6016,137.6484 Q558.7813,137.5938 558.9844,137.4141 Q559.1172,137.3125 559.1875,137.2813 Q559.2578,137.25 559.3438,137.25 Q559.5078,137.25 559.625,137.3828 Q559.75,137.5078 559.75,137.6875 Q559.75,137.8594 559.5781,138.0625 Q559.3281,138.3594 558.9297,138.5234 Q558.4063,138.75 557.7656,138.75 Q557.0156,138.75 556.4141,138.4531 Q555.9297,138.2188 555.5859,137.7109 Q555.25,137.2031 555.25,136.6016 L555.25,136.0547 Q555.25,135.4297 555.5469,134.8828 Q555.8516,134.3359 556.375,134.0469 Q556.9063,133.75 557.5,133.75 Q557.8594,133.75 558.1719,133.875 Q558.4844,134 558.75,134.25 Z " fill="#000000"/><text fill="#000000" font-family="sans-serif" font-size="6" lengthAdjust="spacing" textLength="26.5" x="564.75" y="138.4551">Fragment</text><line style="stroke:#A80036;stroke-width:0.75;" x1="550.75" x2="592.25" y1="144" y2="144"/><line style="stroke:#A80036;stroke-width:0.75;" x1="550.75" x2="592.25" y1="148" y2="148"/><!--MD5=[21611000fb161c6029cb0e7843f050ee]
class androidx.lifecycle.ViewModel--><rect fill="#FEFECE" filter="url(#fczk3plypjc74)" height="24" id="androidx.lifecycle.ViewModel" style="stroke:#A80036;stroke-width:0.75;" width="45.5" x="264.75" y="21"/><ellipse cx="272.25" cy="29" fill="#ADD1B2" rx="5.5" ry="5.5" style="stroke:#A80036;stroke-width:0.5;"/><path d="M273.25,27.25 Q273.3516,27 273.4688,26.875 Q273.5859,26.75 273.7188,26.75 Q273.9531,26.75 274.1016,26.8906 Q274.25,27.0313 274.25,27.3594 L274.25,28.1406 Q274.25,28.4688 274.1094,28.6094 Q273.9688,28.75 273.75,28.75 Q273.5547,28.75 273.4297,28.6641 Q273.3047,28.5781 273.25,28.3516 Q273.2266,28.1953 273.1406,28.1094 Q272.9844,27.9453 272.7031,27.8516 Q272.4219,27.75 272.1406,27.75 Q271.7891,27.75 271.4922,27.8906 Q271.2031,28.0313 270.9766,28.3438 Q270.75,28.6563 270.75,29.0859 L270.75,29.5469 Q270.75,30.0625 271.1719,30.4063 Q271.5938,30.75 272.3438,30.75 Q272.7891,30.75 273.1016,30.6484 Q273.2813,30.5938 273.4844,30.4141 Q273.6172,30.3125 273.6875,30.2813 Q273.7578,30.25 273.8438,30.25 Q274.0078,30.25 274.125,30.3828 Q274.25,30.5078 274.25,30.6875 Q274.25,30.8594 274.0781,31.0625 Q273.8281,31.3594 273.4297,31.5234 Q272.9063,31.75 272.2656,31.75 Q271.5156,31.75 270.9141,31.4531 Q270.4297,31.2188 270.0859,30.7109 Q269.75,30.2031 269.75,29.6016 L269.75,29.0547 Q269.75,28.4297 270.0469,27.8828 Q270.3516,27.3359 270.875,27.0469 Q271.4063,26.75 272,26.75 Q272.3594,26.75 272.6719,26.875 Q272.9844,27 273.25,27.25 Z " fill="#000000"/><text fill="#000000" font-family="sans-serif" font-size="6" lengthAdjust="spacing" textLength="29.5" x="279.25" y="31.4551">ViewModel</text><line style="stroke:#A80036;stroke-width:0.75;" x1="265.25" x2="309.75" y1="37" y2="37"/><line style="stroke:#A80036;stroke-width:0.75;" x1="265.25" x2="309.75" y1="41" y2="41"/><!--MD5=[89b9a41939e6c90db54ec4e7fadaf242]
reverse link com.luckyba.myfile.audios.Adapter to com.luckyba.myfile.audios.AudiosListAdapter--><path codeLine="57" d="M109.545,161.185 C114.655,171.97 121.18,185.32 127.5,197 C140.675,221.365 156.75,248.185 169.225,268.455 " fill="none" id="com.luckyba.myfile.audios.Adapter-backto-com.luckyba.myfile.audios.AudiosListAdapter" style="stroke:#A80036;stroke-width:0.5;"/><polygon fill="none" points="106.37,162.655,105.3,152.115,112.71,159.69,106.37,162.655" style="stroke:#A80036;stroke-width:0.5;"/><!--MD5=[e25b38123b0686c40a2bbd0cb9360624]
reverse link com.luckyba.myfile.audios.ClickListener to com.luckyba.myfile.audios.AudiosListFragment--><path codeLine="58" d="M170.7,161.265 C176.595,173.14 185.425,187.515 197,197 C226.535,221.2 243.08,210.475 277.5,227 C294.05,234.945 311.275,244.405 327.425,253.855 " fill="none" id="com.luckyba.myfile.audios.ClickListener-backto-com.luckyba.myfile.audios.AudiosListFragment" style="stroke:#A80036;stroke-width:0.5;stroke-dasharray:7.0,7.0;"/><polygon fill="none" points="167.455,162.585,166.445,152.04,173.81,159.65,167.455,162.585" style="stroke:#A80036;stroke-width:0.5;"/><!--MD5=[0c6db38d7c757a9a072c1a0bb2079132]
reverse link androidx.fragment.app.Fragment to com.luckyba.myfile.audios.AudiosListFragment--><path codeLine="59" d="M558.655,160.565 C550.99,171.835 540.69,185.83 530,197 C513.21,214.545 493.445,231.81 474.505,247.07 " fill="none" id="androidx.fragment.app.Fragment-backto-com.luckyba.myfile.audios.AudiosListFragment" style="stroke:#A80036;stroke-width:0.5;"/><polygon fill="none" points="555.75,158.615,564.195,152.22,561.58,162.485,555.75,158.615" style="stroke:#A80036;stroke-width:0.5;"/><!--MD5=[e78e3c3736be56f0403a1014e63972b0]
reverse link com.luckyba.myfile.audios.AudiosListFragment to com.luckyba.myfile.audios.AudiosListFragment.OnFragmentInteractionListener--><path codeLine="60" d="M401,383.23 C401,391.535 401,399.17 401,405.335 " fill="none" id="com.luckyba.myfile.audios.AudiosListFragment-backto-com.luckyba.myfile.audios.AudiosListFragment.OnFragmentInteractionListener" style="stroke:#A80036;stroke-width:0.5;stroke-dasharray:7.0,7.0;"/><ellipse cx="401" cy="379.605" fill="#FFFFFF" rx="4" ry="4" style="stroke:#A80036;stroke-width:0.5;"/><line style="stroke:#A80036;stroke-width:0.5;" x1="401" x2="401" y1="383.605" y2="375.605"/><line style="stroke:#A80036;stroke-width:0.5;" x1="397" x2="405" y1="379.605" y2="379.605"/><!--MD5=[f819f57dda6514d2c658fa8832834b1c]
reverse link com.luckyba.myfile.audios.ViewHolder to com.luckyba.myfile.audios.AudiosListViewHolder--><path codeLine="61" d="M41.945,162.005 C44.81,193.655 50.11,252.26 52.82,282.155 " fill="none" id="com.luckyba.myfile.audios.ViewHolder-backto-com.luckyba.myfile.audios.AudiosListViewHolder" style="stroke:#A80036;stroke-width:0.5;"/><polygon fill="none" points="38.46,162.3,41.045,152.025,45.43,161.67,38.46,162.3" style="stroke:#A80036;stroke-width:0.5;"/><!--MD5=[32964f56bab1b342d313de1bbd83fb58]
reverse link androidx.lifecycle.ViewModel to com.luckyba.myfile.audios.AudiosViewModel--><path codeLine="62" d="M287.5,55.16 C287.5,74.49 287.5,102.505 287.5,120.86 " fill="none" id="androidx.lifecycle.ViewModel-backto-com.luckyba.myfile.audios.AudiosViewModel" style="stroke:#A80036;stroke-width:0.5;"/><polygon fill="none" points="284,55.045,287.5,45.045,291,55.045,284,55.045" style="stroke:#A80036;stroke-width:0.5;"/><!--MD5=[fc694f6c0287bf00f0769d7e925ef2ac]
@startuml
class com.luckyba.myfile.audios.AudiosListAdapter {
- ArrayList<MediaFileListModel> mediaFileListModels
- CommonListener.ClickListener mListener
+ void setData(ArrayList<MediaFileListModel>)
+ AudiosListViewHolder onCreateViewHolder(ViewGroup,int)
+ void onBindViewHolder(AudiosListViewHolder,int)
+ int getItemCount()
}
class com.luckyba.myfile.audios.AudiosViewManager {
- View mRootView
- AudiosViewModel audiosViewModel
- AudiosListAdapter audiosListAdapter
- Activity activity
- RecyclerView recyclerView
- ArrayList<MediaFileListModel> mediaFileListModels
- LinearLayout noMediaLayout
- MediaPlayer mediaPlayer
- void init()
- void showAudioPlayer(String,String)
- void getMusicList()
+ void onItemClick(View,int)
+ void onItemLongClick(View,int)
}
class com.luckyba.myfile.audios.AudiosListFragment {
- {static} String ARG_PARAM1
- {static} String ARG_PARAM2
- View mRootView
- OnFragmentInteractionListener mListener
- AudiosViewManager audiosViewManager
- AudiosListAdapter audiosListAdapter
- AudiosViewModel audiosViewModel
+ {static} AudiosListFragment newInstance(String,String)
+ void onCreate(Bundle)
+ View onCreateView(LayoutInflater,ViewGroup,Bundle)
+ void onViewCreated(View,Bundle)
+ void onButtonPressed(Uri)
+ void onAttach(Context)
+ void onDetach()
+ void onDestroy()
+ void onResume()
+ void onClick(View,int)
+ void onLongClick(View,int)
}
interface com.luckyba.myfile.audios.AudiosListFragment.OnFragmentInteractionListener {
~ void onFragmentInteraction(Uri)
}
class com.luckyba.myfile.audios.AudiosListViewHolder {
+ TextView lblFileName
+ ImageView imgItemIcon
}
class com.luckyba.myfile.audios.AudiosViewModel {
- FileRepository repository
+ ArrayList<MediaFileListModel> getALLAudios(DictionaryModel)
}


com.luckyba.myfile.audios.Adapter <|- - com.luckyba.myfile.audios.AudiosListAdapter
com.luckyba.myfile.audios.ClickListener <|.. com.luckyba.myfile.audios.AudiosListFragment
androidx.fragment.app.Fragment <|- - com.luckyba.myfile.audios.AudiosListFragment
com.luckyba.myfile.audios.AudiosListFragment +.. com.luckyba.myfile.audios.AudiosListFragment.OnFragmentInteractionListener
com.luckyba.myfile.audios.ViewHolder <|- - com.luckyba.myfile.audios.AudiosListViewHolder
androidx.lifecycle.ViewModel <|- - com.luckyba.myfile.audios.AudiosViewModel
@enduml

PlantUML version 1.2021.00(Sun Jan 10 17:25:05 ICT 2021)
(GPL source distribution)
Java Runtime: OpenJDK Runtime Environment
JVM: OpenJDK 64-Bit Server VM
Default Encoding: Cp1252
Language: en
Country: US
--></g></svg>