<?xml version="1.0" encoding="UTF-8" standalone="no"?><svg xmlns="http://www.w3.org/2000/svg" xmlns:xlink="http://www.w3.org/1999/xlink" contentScriptType="application/ecmascript" contentStyleType="text/css" height="441px" preserveAspectRatio="none" style="width:641px;height:441px;" version="1.1" viewBox="0 0 641 441" width="641px" zoomAndPan="magnify"><defs><filter height="300%" id="fun58iztky2gm" width="300%" x="-1" y="-1"><feGaussianBlur result="blurOut" stdDeviation="1.0"/><feColorMatrix in="blurOut" result="blurOut2" type="matrix" values="0 0 0 0 0 0 0 0 0 0 0 0 0 0 0 0 0 0 .4 0"/><feOffset dx="2.0" dy="2.0" in="blurOut2" result="blurOut3"/><feBlend in="SourceGraphic" in2="blurOut3" mode="normal"/></filter></defs><g><!--MD5=[eacdd6f698c45276feb708f9f2d48b71]
cluster com.luckyba.myfile.images--><polygon fill="#FFFFFF" filter="url(#fun58iztky2gm)" points="8,65,103.5,65,107,76.8047,533,76.8047,533,437.5,8,437.5,8,65" style="stroke:#000000;stroke-width:0.75;"/><line style="stroke:#000000;stroke-width:0.75;" x1="8" x2="107" y1="76.8047" y2="76.8047"/><text fill="#000000" font-family="sans-serif" font-size="7" font-weight="bold" lengthAdjust="spacing" textLength="92.5" x="10" y="73.2666">com.luckyba.myfile.images</text><!--MD5=[9766f90424e1828585cf1d2dc254d514]
cluster androidx.fragment.app--><polygon fill="#FFFFFF" filter="url(#fun58iztky2gm)" points="545,103,627.5,103,631,114.8047,632.5,114.8047,632.5,153,545,153,545,103" style="stroke:#000000;stroke-width:0.75;"/><line style="stroke:#000000;stroke-width:0.75;" x1="545" x2="631" y1="114.8047" y2="114.8047"/><text fill="#000000" font-family="sans-serif" font-size="7" font-weight="bold" lengthAdjust="spacing" textLength="79.5" x="547" y="111.2666">androidx.fragment.app</text><!--MD5=[b44fd8e7153115a4ff7630ac829e4651]
cluster androidx.lifecycle--><polygon fill="#FFFFFF" filter="url(#fun58iztky2gm)" points="251,3,316,3,319.5,14.8047,321,14.8047,321,53,251,53,251,3" style="stroke:#000000;stroke-width:0.75;"/><line style="stroke:#000000;stroke-width:0.75;" x1="251" x2="319.5" y1="14.8047" y2="14.8047"/><text fill="#000000" font-family="sans-serif" font-size="7" font-weight="bold" lengthAdjust="spacing" textLength="62" x="253" y="11.2666">androidx.lifecycle</text><!--MD5=[211be5f2cb9f8b2023298df180c14d40]
class com.luckyba.myfile.images.ImagesListViewHolder--><rect codeLine="1" fill="#FEFECE" filter="url(#fun58iztky2gm)" height="37.8359" id="com.luckyba.myfile.images.ImagesListViewHolder" style="stroke:#A80036;stroke-width:0.75;" width="78.5" x="191.75" y="271.75"/><ellipse cx="199.25" cy="279.75" fill="#ADD1B2" rx="5.5" ry="5.5" style="stroke:#A80036;stroke-width:0.5;"/><path d="M200.25,278 Q200.3516,277.75 200.4688,277.625 Q200.5859,277.5 200.7188,277.5 Q200.9531,277.5 201.1016,277.6406 Q201.25,277.7813 201.25,278.1094 L201.25,278.8906 Q201.25,279.2188 201.1094,279.3594 Q200.9688,279.5 200.75,279.5 Q200.5547,279.5 200.4297,279.4141 Q200.3047,279.3281 200.25,279.1016 Q200.2266,278.9453 200.1406,278.8594 Q199.9844,278.6953 199.7031,278.6016 Q199.4219,278.5 199.1406,278.5 Q198.7891,278.5 198.4922,278.6406 Q198.2031,278.7813 197.9766,279.0938 Q197.75,279.4063 197.75,279.8359 L197.75,280.2969 Q197.75,280.8125 198.1719,281.1563 Q198.5938,281.5 199.3438,281.5 Q199.7891,281.5 200.1016,281.3984 Q200.2813,281.3438 200.4844,281.1641 Q200.6172,281.0625 200.6875,281.0313 Q200.7578,281 200.8438,281 Q201.0078,281 201.125,281.1328 Q201.25,281.2578 201.25,281.4375 Q201.25,281.6094 201.0781,281.8125 Q200.8281,282.1094 200.4297,282.2734 Q199.9063,282.5 199.2656,282.5 Q198.5156,282.5 197.9141,282.2031 Q197.4297,281.9688 197.0859,281.4609 Q196.75,280.9531 196.75,280.3516 L196.75,279.8047 Q196.75,279.1797 197.0469,278.6328 Q197.3516,278.0859 197.875,277.7969 Q198.4063,277.5 199,277.5 Q199.3594,277.5 199.6719,277.625 Q199.9844,277.75 200.25,278 Z " fill="#000000"/><text fill="#000000" font-family="sans-serif" font-size="6" lengthAdjust="spacing" textLength="62.5" x="206.25" y="282.2051">ImagesListViewHolder</text><line style="stroke:#A80036;stroke-width:0.75;" x1="192.25" x2="269.75" y1="287.75" y2="287.75"/><ellipse cx="197.25" cy="293.25" fill="none" rx="1.5" ry="1.5" style="stroke:#038048;stroke-width:0.5;"/><text fill="#000000" font-family="sans-serif" font-size="5.5" lengthAdjust="spacing" textLength="51.5" x="201.75" y="295.4595">TextView lblFileName</text><ellipse cx="197.25" cy="300.168" fill="none" rx="1.5" ry="1.5" style="stroke:#038048;stroke-width:0.5;"/><text fill="#000000" font-family="sans-serif" font-size="5.5" lengthAdjust="spacing" textLength="56" x="201.75" y="302.3774">ImageView imgItemIcon</text><line style="stroke:#A80036;stroke-width:0.75;" x1="192.25" x2="269.75" y1="305.5859" y2="305.5859"/><!--MD5=[48ae4374227aa0fef7f1bdda68655034]
class com.luckyba.myfile.images.ImagesListFragment--><rect codeLine="5" fill="#FEFECE" filter="url(#fun58iztky2gm)" height="155.4414" id="com.luckyba.myfile.images.ImagesListFragment" style="stroke:#A80036;stroke-width:0.75;" width="147" x="329.5" y="213"/><ellipse cx="372.125" cy="221" fill="#ADD1B2" rx="5.5" ry="5.5" style="stroke:#A80036;stroke-width:0.5;"/><path d="M373.125,219.25 Q373.2266,219 373.3438,218.875 Q373.4609,218.75 373.5938,218.75 Q373.8281,218.75 373.9766,218.8906 Q374.125,219.0313 374.125,219.3594 L374.125,220.1406 Q374.125,220.4688 373.9844,220.6094 Q373.8438,220.75 373.625,220.75 Q373.4297,220.75 373.3047,220.6641 Q373.1797,220.5781 373.125,220.3516 Q373.1016,220.1953 373.0156,220.1094 Q372.8594,219.9453 372.5781,219.8516 Q372.2969,219.75 372.0156,219.75 Q371.6641,219.75 371.3672,219.8906 Q371.0781,220.0313 370.8516,220.3438 Q370.625,220.6563 370.625,221.0859 L370.625,221.5469 Q370.625,222.0625 371.0469,222.4063 Q371.4688,222.75 372.2188,222.75 Q372.6641,222.75 372.9766,222.6484 Q373.1563,222.5938 373.3594,222.4141 Q373.4922,222.3125 373.5625,222.2813 Q373.6328,222.25 373.7188,222.25 Q373.8828,222.25 374,222.3828 Q374.125,222.5078 374.125,222.6875 Q374.125,222.8594 373.9531,223.0625 Q373.7031,223.3594 373.3047,223.5234 Q372.7813,223.75 372.1406,223.75 Q371.3906,223.75 370.7891,223.4531 Q370.3047,223.2188 369.9609,222.7109 Q369.625,222.2031 369.625,221.6016 L369.625,221.0547 Q369.625,220.4297 369.9219,219.8828 Q370.2266,219.3359 370.75,219.0469 Q371.2813,218.75 371.875,218.75 Q372.2344,218.75 372.5469,218.875 Q372.8594,219 373.125,219.25 Z " fill="#000000"/><text fill="#000000" font-family="sans-serif" font-size="6" lengthAdjust="spacing" textLength="57.5" x="382.375" y="223.4551">ImagesListFragment</text><line style="stroke:#A80036;stroke-width:0.75;" x1="330" x2="476" y1="229" y2="229"/><rect fill="none" height="3" style="stroke:#C82930;stroke-width:0.5;" width="3" x="333.5" y="233"/><text fill="#000000" font-family="sans-serif" font-size="5.5" lengthAdjust="spacing" text-decoration="underline" textLength="51.5" x="339.5" y="236.7095">String ARG_PARAM1</text><rect fill="none" height="3" style="stroke:#C82930;stroke-width:0.5;" width="3" x="333.5" y="239.918"/><text fill="#000000" font-family="sans-serif" font-size="5.5" lengthAdjust="spacing" text-decoration="underline" textLength="51.5" x="339.5" y="243.6274">String ARG_PARAM2</text><rect fill="none" height="3" style="stroke:#C82930;stroke-width:0.5;" width="3" x="333.5" y="246.8359"/><text fill="#000000" font-family="sans-serif" font-size="5.5" lengthAdjust="spacing" textLength="37.5" x="339.5" y="250.5454">String mParam1</text><rect fill="none" height="3" style="stroke:#C82930;stroke-width:0.5;" width="3" x="333.5" y="253.7539"/><text fill="#000000" font-family="sans-serif" font-size="5.5" lengthAdjust="spacing" textLength="37.5" x="339.5" y="257.4634">String mParam2</text><rect fill="none" height="3" style="stroke:#C82930;stroke-width:0.5;" width="3" x="333.5" y="260.6719"/><text fill="#000000" font-family="sans-serif" font-size="5.5" lengthAdjust="spacing" textLength="42.5" x="339.5" y="264.3813">View mRootView</text><rect fill="none" height="3" style="stroke:#C82930;stroke-width:0.5;" width="3" x="333.5" y="267.5898"/><text fill="#000000" font-family="sans-serif" font-size="5.5" lengthAdjust="spacing" textLength="106.5" x="339.5" y="271.2993">ImagesListViewModel imagesListViewModel</text><rect fill="none" height="3" style="stroke:#C82930;stroke-width:0.5;" width="3" x="333.5" y="274.5078"/><text fill="#000000" font-family="sans-serif" font-size="5.5" lengthAdjust="spacing" textLength="91.5" x="339.5" y="278.2173">ImagesListAdapter imagesListAdapter</text><rect fill="none" height="3" style="stroke:#C82930;stroke-width:0.5;" width="3" x="333.5" y="281.4258"/><text fill="#000000" font-family="sans-serif" font-size="5.5" lengthAdjust="spacing" textLength="94.5" x="339.5" y="285.1353">ImagesListManager imagesListManager</text><rect fill="none" height="3" style="stroke:#C82930;stroke-width:0.5;" width="3" x="333.5" y="288.3438"/><text fill="#000000" font-family="sans-serif" font-size="5.5" lengthAdjust="spacing" textLength="99" x="339.5" y="292.0532">OnFragmentInteractionListener mListener</text><line style="stroke:#A80036;stroke-width:0.75;" x1="330" x2="476" y1="295.2617" y2="295.2617"/><ellipse cx="335" cy="300.7617" fill="#84BE84" rx="1.5" ry="1.5" style="stroke:#038048;stroke-width:0.5;"/><text fill="#000000" font-family="sans-serif" font-size="5.5" lengthAdjust="spacing" text-decoration="underline" textLength="114.5" x="339.5" y="302.9712">ImagesListFragment newInstance(String,String)</text><ellipse cx="335" cy="307.6797" fill="#84BE84" rx="1.5" ry="1.5" style="stroke:#038048;stroke-width:0.5;"/><text fill="#000000" font-family="sans-serif" font-size="5.5" lengthAdjust="spacing" textLength="54" x="339.5" y="309.8892">void onCreate(Bundle)</text><ellipse cx="335" cy="314.5977" fill="#84BE84" rx="1.5" ry="1.5" style="stroke:#038048;stroke-width:0.5;"/><text fill="#000000" font-family="sans-serif" font-size="5.5" lengthAdjust="spacing" textLength="134" x="339.5" y="316.8071">View onCreateView(LayoutInflater,ViewGroup,Bundle)</text><ellipse cx="335" cy="321.5156" fill="#84BE84" rx="1.5" ry="1.5" style="stroke:#038048;stroke-width:0.5;"/><text fill="#000000" font-family="sans-serif" font-size="5.5" lengthAdjust="spacing" textLength="84.5" x="339.5" y="323.7251">void onViewCreated(View,Bundle)</text><ellipse cx="335" cy="328.4336" fill="#84BE84" rx="1.5" ry="1.5" style="stroke:#038048;stroke-width:0.5;"/><text fill="#000000" font-family="sans-serif" font-size="5.5" lengthAdjust="spacing" textLength="63.5" x="339.5" y="330.6431">void onButtonPressed(Uri)</text><ellipse cx="335" cy="335.3516" fill="#84BE84" rx="1.5" ry="1.5" style="stroke:#038048;stroke-width:0.5;"/><text fill="#000000" font-family="sans-serif" font-size="5.5" lengthAdjust="spacing" textLength="56" x="339.5" y="337.561">void onAttach(Context)</text><ellipse cx="335" cy="342.2695" fill="#84BE84" rx="1.5" ry="1.5" style="stroke:#038048;stroke-width:0.5;"/><text fill="#000000" font-family="sans-serif" font-size="5.5" lengthAdjust="spacing" textLength="38.5" x="339.5" y="344.479">void onDetach()</text><ellipse cx="335" cy="349.1875" fill="#84BE84" rx="1.5" ry="1.5" style="stroke:#038048;stroke-width:0.5;"/><text fill="#000000" font-family="sans-serif" font-size="5.5" lengthAdjust="spacing" textLength="40.5" x="339.5" y="351.397">void onDestroy()</text><ellipse cx="335" cy="356.1055" fill="#84BE84" rx="1.5" ry="1.5" style="stroke:#038048;stroke-width:0.5;"/><text fill="#000000" font-family="sans-serif" font-size="5.5" lengthAdjust="spacing" textLength="52.5" x="339.5" y="358.3149">void onClick(View,int)</text><ellipse cx="335" cy="363.0234" fill="#84BE84" rx="1.5" ry="1.5" style="stroke:#038048;stroke-width:0.5;"/><text fill="#000000" font-family="sans-serif" font-size="5.5" lengthAdjust="spacing" textLength="64.5" x="339.5" y="365.2329">void onLongClick(View,int)</text><!--MD5=[af78fc9cf2d52ea2eb45396a85f96041]
class com.luckyba.myfile.images.ImagesListFragment.OnFragmentInteractionListener--><rect codeLine="26" fill="#FEFECE" filter="url(#fun58iztky2gm)" height="30.918" id="com.luckyba.myfile.images.ImagesListFragment.OnFragmentInteractionListener" style="stroke:#A80036;stroke-width:0.75;" width="160" x="323" y="398.5"/><ellipse cx="330.5" cy="406.5" fill="#B4A7E5" rx="5.5" ry="5.5" style="stroke:#A80036;stroke-width:0.5;"/><path d="M331,405 L331,408 L332,408 L332.2422,408 L332.5,408.3125 L332.5,408.5 L332.5,408.6875 L332.2422,409 L332,409 L329,409 L328.7578,409 L328.5,408.6875 L328.5,408.5 L328.5,408.3125 L328.7578,408 L329,408 L330,408 L330,405 L329,405 L328.7578,405 L328.5,404.6875 L328.5,404.5 L328.5,404.3125 L328.7578,404 L329,404 L332,404 L332.2422,404 L332.5,404.3125 L332.5,404.5 L332.5,404.6875 L332.2422,405 L332,405 L331,405 Z " fill="#000000"/><text fill="#000000" font-family="sans-serif" font-size="6" font-style="italic" lengthAdjust="spacing" textLength="144" x="337.5" y="408.9551">ImagesListFragment.OnFragmentInteractionListener</text><line style="stroke:#A80036;stroke-width:0.75;" x1="323.5" x2="482.5" y1="414.5" y2="414.5"/><line style="stroke:#A80036;stroke-width:0.75;" x1="323.5" x2="482.5" y1="418.5" y2="418.5"/><polygon fill="#4177AF" points="328.5,422,326.5,425,330.5,425" style="stroke:#1963A0;stroke-width:0.5;"/><text fill="#000000" font-family="sans-serif" font-size="5.5" lengthAdjust="spacing" textLength="75.5" x="333" y="426.2095">void onFragmentInteraction(Uri)</text><!--MD5=[247758b0b39940cb3bfbf618ba5af22a]
class com.luckyba.myfile.images.ImagesListManager--><rect codeLine="29" fill="#FEFECE" filter="url(#fun58iztky2gm)" height="100.0977" id="com.luckyba.myfile.images.ImagesListManager" style="stroke:#A80036;stroke-width:0.75;" width="141" x="384" y="83"/><ellipse cx="424.875" cy="91" fill="#ADD1B2" rx="5.5" ry="5.5" style="stroke:#A80036;stroke-width:0.5;"/><path d="M425.875,89.25 Q425.9766,89 426.0938,88.875 Q426.2109,88.75 426.3438,88.75 Q426.5781,88.75 426.7266,88.8906 Q426.875,89.0313 426.875,89.3594 L426.875,90.1406 Q426.875,90.4688 426.7344,90.6094 Q426.5938,90.75 426.375,90.75 Q426.1797,90.75 426.0547,90.6641 Q425.9297,90.5781 425.875,90.3516 Q425.8516,90.1953 425.7656,90.1094 Q425.6094,89.9453 425.3281,89.8516 Q425.0469,89.75 424.7656,89.75 Q424.4141,89.75 424.1172,89.8906 Q423.8281,90.0313 423.6016,90.3438 Q423.375,90.6563 423.375,91.0859 L423.375,91.5469 Q423.375,92.0625 423.7969,92.4063 Q424.2188,92.75 424.9688,92.75 Q425.4141,92.75 425.7266,92.6484 Q425.9063,92.5938 426.1094,92.4141 Q426.2422,92.3125 426.3125,92.2813 Q426.3828,92.25 426.4688,92.25 Q426.6328,92.25 426.75,92.3828 Q426.875,92.5078 426.875,92.6875 Q426.875,92.8594 426.7031,93.0625 Q426.4531,93.3594 426.0547,93.5234 Q425.5313,93.75 424.8906,93.75 Q424.1406,93.75 423.5391,93.4531 Q423.0547,93.2188 422.7109,92.7109 Q422.375,92.2031 422.375,91.6016 L422.375,91.0547 Q422.375,90.4297 422.6719,89.8828 Q422.9766,89.3359 423.5,89.0469 Q424.0313,88.75 424.625,88.75 Q424.9844,88.75 425.2969,88.875 Q425.6094,89 425.875,89.25 Z " fill="#000000"/><text fill="#000000" font-family="sans-serif" font-size="6" lengthAdjust="spacing" textLength="55" x="435.125" y="93.4551">ImagesListManager</text><line style="stroke:#A80036;stroke-width:0.75;" x1="384.5" x2="524.5" y1="99" y2="99"/><rect fill="none" height="3" style="stroke:#C82930;stroke-width:0.5;" width="3" x="388" y="103"/><text fill="#000000" font-family="sans-serif" font-size="5.5" lengthAdjust="spacing" textLength="128" x="394" y="106.7095">ArrayList&lt;MediaFileListModel&gt; imageListModelsArray</text><rect fill="none" height="3" style="stroke:#C82930;stroke-width:0.5;" width="3" x="388" y="109.918"/><text fill="#000000" font-family="sans-serif" font-size="5.5" lengthAdjust="spacing" textLength="91.5" x="394" y="113.6274">ImagesListAdapter imagesListAdapter</text><rect fill="none" height="3" style="stroke:#C82930;stroke-width:0.5;" width="3" x="388" y="116.8359"/><text fill="#000000" font-family="sans-serif" font-size="5.5" lengthAdjust="spacing" textLength="69.5" x="394" y="120.5454">LinearLayout noMediaLayout</text><rect fill="none" height="3" style="stroke:#C82930;stroke-width:0.5;" width="3" x="388" y="123.7539"/><text fill="#000000" font-family="sans-serif" font-size="5.5" lengthAdjust="spacing" textLength="69" x="394" y="127.4634">RecyclerView recyclerView</text><rect fill="none" height="3" style="stroke:#C82930;stroke-width:0.5;" width="3" x="388" y="130.6719"/><text fill="#000000" font-family="sans-serif" font-size="5.5" lengthAdjust="spacing" textLength="42.5" x="394" y="134.3813">View mRootView</text><rect fill="none" height="3" style="stroke:#C82930;stroke-width:0.5;" width="3" x="388" y="137.5898"/><text fill="#000000" font-family="sans-serif" font-size="5.5" lengthAdjust="spacing" textLength="106.5" x="394" y="141.2993">ImagesListViewModel imagesListViewModel</text><rect fill="none" height="3" style="stroke:#C82930;stroke-width:0.5;" width="3" x="388" y="144.5078"/><text fill="#000000" font-family="sans-serif" font-size="5.5" lengthAdjust="spacing" textLength="36.5" x="394" y="148.2173">Activity activity</text><line style="stroke:#A80036;stroke-width:0.75;" x1="384.5" x2="524.5" y1="151.4258" y2="151.4258"/><rect fill="#F24D5C" height="3" style="stroke:#C82930;stroke-width:0.5;" width="3" x="388" y="155.4258"/><text fill="#000000" font-family="sans-serif" font-size="5.5" lengthAdjust="spacing" textLength="22" x="394" y="159.1353">void init()</text><rect fill="#F24D5C" height="3" style="stroke:#C82930;stroke-width:0.5;" width="3" x="388" y="162.3438"/><text fill="#000000" font-family="sans-serif" font-size="5.5" lengthAdjust="spacing" textLength="48.5" x="394" y="166.0532">void getImagesList()</text><ellipse cx="389.5" cy="170.7617" fill="#84BE84" rx="1.5" ry="1.5" style="stroke:#038048;stroke-width:0.5;"/><text fill="#000000" font-family="sans-serif" font-size="5.5" lengthAdjust="spacing" textLength="62" x="394" y="172.9712">void onItemClick(View,int)</text><ellipse cx="389.5" cy="177.6797" fill="#84BE84" rx="1.5" ry="1.5" style="stroke:#038048;stroke-width:0.5;"/><text fill="#000000" font-family="sans-serif" font-size="5.5" lengthAdjust="spacing" textLength="74" x="394" y="179.8892">void onItemLongClick(View,int)</text><!--MD5=[799924ccdb7243402e47874a7d7a1766]
class com.luckyba.myfile.images.ImagesListAdapter--><rect codeLine="42" fill="#FEFECE" filter="url(#fun58iztky2gm)" height="79.3438" id="com.luckyba.myfile.images.ImagesListAdapter" style="stroke:#A80036;stroke-width:0.75;" width="158" x="16" y="251"/><ellipse cx="66.875" cy="259" fill="#ADD1B2" rx="5.5" ry="5.5" style="stroke:#A80036;stroke-width:0.5;"/><path d="M67.875,257.25 Q67.9766,257 68.0938,256.875 Q68.2109,256.75 68.3438,256.75 Q68.5781,256.75 68.7266,256.8906 Q68.875,257.0313 68.875,257.3594 L68.875,258.1406 Q68.875,258.4688 68.7344,258.6094 Q68.5938,258.75 68.375,258.75 Q68.1797,258.75 68.0547,258.6641 Q67.9297,258.5781 67.875,258.3516 Q67.8516,258.1953 67.7656,258.1094 Q67.6094,257.9453 67.3281,257.8516 Q67.0469,257.75 66.7656,257.75 Q66.4141,257.75 66.1172,257.8906 Q65.8281,258.0313 65.6016,258.3438 Q65.375,258.6563 65.375,259.0859 L65.375,259.5469 Q65.375,260.0625 65.7969,260.4063 Q66.2188,260.75 66.9688,260.75 Q67.4141,260.75 67.7266,260.6484 Q67.9063,260.5938 68.1094,260.4141 Q68.2422,260.3125 68.3125,260.2813 Q68.3828,260.25 68.4688,260.25 Q68.6328,260.25 68.75,260.3828 Q68.875,260.5078 68.875,260.6875 Q68.875,260.8594 68.7031,261.0625 Q68.4531,261.3594 68.0547,261.5234 Q67.5313,261.75 66.8906,261.75 Q66.1406,261.75 65.5391,261.4531 Q65.0547,261.2188 64.7109,260.7109 Q64.375,260.2031 64.375,259.6016 L64.375,259.0547 Q64.375,258.4297 64.6719,257.8828 Q64.9766,257.3359 65.5,257.0469 Q66.0313,256.75 66.625,256.75 Q66.9844,256.75 67.2969,256.875 Q67.6094,257 67.875,257.25 Z " fill="#000000"/><text fill="#000000" font-family="sans-serif" font-size="6" lengthAdjust="spacing" textLength="52" x="77.125" y="261.4551">ImagesListAdapter</text><line style="stroke:#A80036;stroke-width:0.75;" x1="16.5" x2="173.5" y1="267" y2="267"/><rect fill="none" height="3" style="stroke:#C82930;stroke-width:0.5;" width="3" x="20" y="271"/><text fill="#000000" font-family="sans-serif" font-size="5.5" lengthAdjust="spacing" textLength="122" x="26" y="274.7095">ArrayList&lt;MediaFileListModel&gt; mediaFileListModels</text><rect fill="none" height="3" style="stroke:#C82930;stroke-width:0.5;" width="3" x="20" y="277.918"/><text fill="#000000" font-family="sans-serif" font-size="5.5" lengthAdjust="spacing" textLength="97" x="26" y="281.6274">CommonListener.ClickListener mListener</text><polygon fill="none" points="21.5,284.3359,19.5,287.3359,23.5,287.3359" style="stroke:#1963A0;stroke-width:0.5;"/><text fill="#000000" font-family="sans-serif" font-size="5.5" lengthAdjust="spacing" textLength="38.5" x="26" y="288.5454">int THUMB_SIZE</text><rect fill="none" height="3" style="stroke:#C82930;stroke-width:0.5;" width="3" x="20" y="291.7539"/><text fill="#000000" font-family="sans-serif" font-size="5.5" lengthAdjust="spacing" textLength="42.5" x="26" y="295.4634">Context mContext</text><line style="stroke:#A80036;stroke-width:0.75;" x1="16.5" x2="173.5" y1="298.6719" y2="298.6719"/><ellipse cx="21.5" cy="304.1719" fill="#84BE84" rx="1.5" ry="1.5" style="stroke:#038048;stroke-width:0.5;"/><text fill="#000000" font-family="sans-serif" font-size="5.5" lengthAdjust="spacing" textLength="107" x="26" y="306.3813">void setData(ArrayList&lt;MediaFileListModel&gt;)</text><ellipse cx="21.5" cy="311.0898" fill="#84BE84" rx="1.5" ry="1.5" style="stroke:#038048;stroke-width:0.5;"/><text fill="#000000" font-family="sans-serif" font-size="5.5" lengthAdjust="spacing" textLength="145" x="26" y="313.2993">ImagesListViewHolder onCreateViewHolder(ViewGroup,int)</text><ellipse cx="21.5" cy="318.0078" fill="#84BE84" rx="1.5" ry="1.5" style="stroke:#038048;stroke-width:0.5;"/><text fill="#000000" font-family="sans-serif" font-size="5.5" lengthAdjust="spacing" textLength="121.5" x="26" y="320.2173">void onBindViewHolder(ImagesListViewHolder,int)</text><ellipse cx="21.5" cy="324.9258" fill="#84BE84" rx="1.5" ry="1.5" style="stroke:#038048;stroke-width:0.5;"/><text fill="#000000" font-family="sans-serif" font-size="5.5" lengthAdjust="spacing" textLength="42" x="26" y="327.1353">int getItemCount()</text><!--MD5=[221691aca04b6839885b8eee30e194cd]
class com.luckyba.myfile.images.ImagesListViewModel--><rect codeLine="52" fill="#FEFECE" filter="url(#fun58iztky2gm)" height="37.8359" id="com.luckyba.myfile.images.ImagesListViewModel" style="stroke:#A80036;stroke-width:0.75;" width="160.5" x="205.75" y="114"/><ellipse cx="253.625" cy="122" fill="#ADD1B2" rx="5.5" ry="5.5" style="stroke:#A80036;stroke-width:0.5;"/><path d="M254.625,120.25 Q254.7266,120 254.8438,119.875 Q254.9609,119.75 255.0938,119.75 Q255.3281,119.75 255.4766,119.8906 Q255.625,120.0313 255.625,120.3594 L255.625,121.1406 Q255.625,121.4688 255.4844,121.6094 Q255.3438,121.75 255.125,121.75 Q254.9297,121.75 254.8047,121.6641 Q254.6797,121.5781 254.625,121.3516 Q254.6016,121.1953 254.5156,121.1094 Q254.3594,120.9453 254.0781,120.8516 Q253.7969,120.75 253.5156,120.75 Q253.1641,120.75 252.8672,120.8906 Q252.5781,121.0313 252.3516,121.3438 Q252.125,121.6563 252.125,122.0859 L252.125,122.5469 Q252.125,123.0625 252.5469,123.4063 Q252.9688,123.75 253.7188,123.75 Q254.1641,123.75 254.4766,123.6484 Q254.6563,123.5938 254.8594,123.4141 Q254.9922,123.3125 255.0625,123.2813 Q255.1328,123.25 255.2188,123.25 Q255.3828,123.25 255.5,123.3828 Q255.625,123.5078 255.625,123.6875 Q255.625,123.8594 255.4531,124.0625 Q255.2031,124.3594 254.8047,124.5234 Q254.2813,124.75 253.6406,124.75 Q252.8906,124.75 252.2891,124.4531 Q251.8047,124.2188 251.4609,123.7109 Q251.125,123.2031 251.125,122.6016 L251.125,122.0547 Q251.125,121.4297 251.4219,120.8828 Q251.7266,120.3359 252.25,120.0469 Q252.7813,119.75 253.375,119.75 Q253.7344,119.75 254.0469,119.875 Q254.3594,120 254.625,120.25 Z " fill="#000000"/><text fill="#000000" font-family="sans-serif" font-size="6" lengthAdjust="spacing" textLength="60.5" x="263.875" y="124.4551">ImagesListViewModel</text><line style="stroke:#A80036;stroke-width:0.75;" x1="206.25" x2="365.75" y1="130" y2="130"/><rect fill="none" height="3" style="stroke:#C82930;stroke-width:0.5;" width="3" x="209.75" y="134"/><text fill="#000000" font-family="sans-serif" font-size="5.5" lengthAdjust="spacing" textLength="60" x="215.75" y="137.7095">FileRepository repository</text><line style="stroke:#A80036;stroke-width:0.75;" x1="206.25" x2="365.75" y1="140.918" y2="140.918"/><ellipse cx="211.25" cy="146.418" fill="#84BE84" rx="1.5" ry="1.5" style="stroke:#038048;stroke-width:0.5;"/><text fill="#000000" font-family="sans-serif" font-size="5.5" lengthAdjust="spacing" textLength="147.5" x="215.75" y="148.6274">ArrayList&lt;MediaFileListModel&gt; getAllInternal(DictionaryModel)</text><!--MD5=[e85a200f6552318d30ee0e4b6f07f73c]
class com.luckyba.myfile.images.ViewHolder--><rect fill="#FEFECE" filter="url(#fun58iztky2gm)" height="24" id="com.luckyba.myfile.images.ViewHolder" style="stroke:#A80036;stroke-width:0.75;" width="47.5" x="70.75" y="121"/><ellipse cx="78.25" cy="129" fill="#ADD1B2" rx="5.5" ry="5.5" style="stroke:#A80036;stroke-width:0.5;"/><path d="M79.25,127.25 Q79.3516,127 79.4688,126.875 Q79.5859,126.75 79.7188,126.75 Q79.9531,126.75 80.1016,126.8906 Q80.25,127.0313 80.25,127.3594 L80.25,128.1406 Q80.25,128.4688 80.1094,128.6094 Q79.9688,128.75 79.75,128.75 Q79.5547,128.75 79.4297,128.6641 Q79.3047,128.5781 79.25,128.3516 Q79.2266,128.1953 79.1406,128.1094 Q78.9844,127.9453 78.7031,127.8516 Q78.4219,127.75 78.1406,127.75 Q77.7891,127.75 77.4922,127.8906 Q77.2031,128.0313 76.9766,128.3438 Q76.75,128.6563 76.75,129.0859 L76.75,129.5469 Q76.75,130.0625 77.1719,130.4063 Q77.5938,130.75 78.3438,130.75 Q78.7891,130.75 79.1016,130.6484 Q79.2813,130.5938 79.4844,130.4141 Q79.6172,130.3125 79.6875,130.2813 Q79.7578,130.25 79.8438,130.25 Q80.0078,130.25 80.125,130.3828 Q80.25,130.5078 80.25,130.6875 Q80.25,130.8594 80.0781,131.0625 Q79.8281,131.3594 79.4297,131.5234 Q78.9063,131.75 78.2656,131.75 Q77.5156,131.75 76.9141,131.4531 Q76.4297,131.2188 76.0859,130.7109 Q75.75,130.2031 75.75,129.6016 L75.75,129.0547 Q75.75,128.4297 76.0469,127.8828 Q76.3516,127.3359 76.875,127.0469 Q77.4063,126.75 78,126.75 Q78.3594,126.75 78.6719,126.875 Q78.9844,127 79.25,127.25 Z " fill="#000000"/><text fill="#000000" font-family="sans-serif" font-size="6" lengthAdjust="spacing" textLength="31.5" x="85.25" y="131.4551">ViewHolder</text><line style="stroke:#A80036;stroke-width:0.75;" x1="71.25" x2="117.75" y1="137" y2="137"/><line style="stroke:#A80036;stroke-width:0.75;" x1="71.25" x2="117.75" y1="141" y2="141"/><!--MD5=[9c503ba82f99b180d6544eb903d8badb]
class com.luckyba.myfile.images.ClickListener--><rect fill="#FEFECE" filter="url(#fun58iztky2gm)" height="24" id="com.luckyba.myfile.images.ClickListener" style="stroke:#A80036;stroke-width:0.75;" width="52" x="136" y="121"/><ellipse cx="143.5" cy="129" fill="#ADD1B2" rx="5.5" ry="5.5" style="stroke:#A80036;stroke-width:0.5;"/><path d="M144.5,127.25 Q144.6016,127 144.7188,126.875 Q144.8359,126.75 144.9688,126.75 Q145.2031,126.75 145.3516,126.8906 Q145.5,127.0313 145.5,127.3594 L145.5,128.1406 Q145.5,128.4688 145.3594,128.6094 Q145.2188,128.75 145,128.75 Q144.8047,128.75 144.6797,128.6641 Q144.5547,128.5781 144.5,128.3516 Q144.4766,128.1953 144.3906,128.1094 Q144.2344,127.9453 143.9531,127.8516 Q143.6719,127.75 143.3906,127.75 Q143.0391,127.75 142.7422,127.8906 Q142.4531,128.0313 142.2266,128.3438 Q142,128.6563 142,129.0859 L142,129.5469 Q142,130.0625 142.4219,130.4063 Q142.8438,130.75 143.5938,130.75 Q144.0391,130.75 144.3516,130.6484 Q144.5313,130.5938 144.7344,130.4141 Q144.8672,130.3125 144.9375,130.2813 Q145.0078,130.25 145.0938,130.25 Q145.2578,130.25 145.375,130.3828 Q145.5,130.5078 145.5,130.6875 Q145.5,130.8594 145.3281,131.0625 Q145.0781,131.3594 144.6797,131.5234 Q144.1563,131.75 143.5156,131.75 Q142.7656,131.75 142.1641,131.4531 Q141.6797,131.2188 141.3359,130.7109 Q141,130.2031 141,129.6016 L141,129.0547 Q141,128.4297 141.2969,127.8828 Q141.6016,127.3359 142.125,127.0469 Q142.6563,126.75 143.25,126.75 Q143.6094,126.75 143.9219,126.875 Q144.2344,127 144.5,127.25 Z " fill="#000000"/><text fill="#000000" font-family="sans-serif" font-size="6" lengthAdjust="spacing" textLength="36" x="150.5" y="131.4551">ClickListener</text><line style="stroke:#A80036;stroke-width:0.75;" x1="136.5" x2="187.5" y1="137" y2="137"/><line style="stroke:#A80036;stroke-width:0.75;" x1="136.5" x2="187.5" y1="141" y2="141"/><!--MD5=[42c7b91146fd34bdb9908107ece49011]
class com.luckyba.myfile.images.Adapter--><rect fill="#FEFECE" filter="url(#fun58iztky2gm)" height="24" id="com.luckyba.myfile.images.Adapter" style="stroke:#A80036;stroke-width:0.75;" width="37" x="16" y="121"/><ellipse cx="23.5" cy="129" fill="#ADD1B2" rx="5.5" ry="5.5" style="stroke:#A80036;stroke-width:0.5;"/><path d="M24.5,127.25 Q24.6016,127 24.7188,126.875 Q24.8359,126.75 24.9688,126.75 Q25.2031,126.75 25.3516,126.8906 Q25.5,127.0313 25.5,127.3594 L25.5,128.1406 Q25.5,128.4688 25.3594,128.6094 Q25.2188,128.75 25,128.75 Q24.8047,128.75 24.6797,128.6641 Q24.5547,128.5781 24.5,128.3516 Q24.4766,128.1953 24.3906,128.1094 Q24.2344,127.9453 23.9531,127.8516 Q23.6719,127.75 23.3906,127.75 Q23.0391,127.75 22.7422,127.8906 Q22.4531,128.0313 22.2266,128.3438 Q22,128.6563 22,129.0859 L22,129.5469 Q22,130.0625 22.4219,130.4063 Q22.8438,130.75 23.5938,130.75 Q24.0391,130.75 24.3516,130.6484 Q24.5313,130.5938 24.7344,130.4141 Q24.8672,130.3125 24.9375,130.2813 Q25.0078,130.25 25.0938,130.25 Q25.2578,130.25 25.375,130.3828 Q25.5,130.5078 25.5,130.6875 Q25.5,130.8594 25.3281,131.0625 Q25.0781,131.3594 24.6797,131.5234 Q24.1563,131.75 23.5156,131.75 Q22.7656,131.75 22.1641,131.4531 Q21.6797,131.2188 21.3359,130.7109 Q21,130.2031 21,129.6016 L21,129.0547 Q21,128.4297 21.2969,127.8828 Q21.6016,127.3359 22.125,127.0469 Q22.6563,126.75 23.25,126.75 Q23.6094,126.75 23.9219,126.875 Q24.2344,127 24.5,127.25 Z " fill="#000000"/><text fill="#000000" font-family="sans-serif" font-size="6" lengthAdjust="spacing" textLength="21" x="30.5" y="131.4551">Adapter</text><line style="stroke:#A80036;stroke-width:0.75;" x1="16.5" x2="52.5" y1="137" y2="137"/><line style="stroke:#A80036;stroke-width:0.75;" x1="16.5" x2="52.5" y1="141" y2="141"/><!--MD5=[4ef56d7331cec24f2808280c59a4eb97]
class androidx.fragment.app.Fragment--><rect fill="#FEFECE" filter="url(#fun58iztky2gm)" height="24" id="androidx.fragment.app.Fragment" style="stroke:#A80036;stroke-width:0.75;" width="42.5" x="553.25" y="121"/><ellipse cx="560.75" cy="129" fill="#ADD1B2" rx="5.5" ry="5.5" style="stroke:#A80036;stroke-width:0.5;"/><path d="M561.75,127.25 Q561.8516,127 561.9688,126.875 Q562.0859,126.75 562.2188,126.75 Q562.4531,126.75 562.6016,126.8906 Q562.75,127.0313 562.75,127.3594 L562.75,128.1406 Q562.75,128.4688 562.6094,128.6094 Q562.4688,128.75 562.25,128.75 Q562.0547,128.75 561.9297,128.6641 Q561.8047,128.5781 561.75,128.3516 Q561.7266,128.1953 561.6406,128.1094 Q561.4844,127.9453 561.2031,127.8516 Q560.9219,127.75 560.6406,127.75 Q560.2891,127.75 559.9922,127.8906 Q559.7031,128.0313 559.4766,128.3438 Q559.25,128.6563 559.25,129.0859 L559.25,129.5469 Q559.25,130.0625 559.6719,130.4063 Q560.0938,130.75 560.8438,130.75 Q561.2891,130.75 561.6016,130.6484 Q561.7813,130.5938 561.9844,130.4141 Q562.1172,130.3125 562.1875,130.2813 Q562.2578,130.25 562.3438,130.25 Q562.5078,130.25 562.625,130.3828 Q562.75,130.5078 562.75,130.6875 Q562.75,130.8594 562.5781,131.0625 Q562.3281,131.3594 561.9297,131.5234 Q561.4063,131.75 560.7656,131.75 Q560.0156,131.75 559.4141,131.4531 Q558.9297,131.2188 558.5859,130.7109 Q558.25,130.2031 558.25,129.6016 L558.25,129.0547 Q558.25,128.4297 558.5469,127.8828 Q558.8516,127.3359 559.375,127.0469 Q559.9063,126.75 560.5,126.75 Q560.8594,126.75 561.1719,126.875 Q561.4844,127 561.75,127.25 Z " fill="#000000"/><text fill="#000000" font-family="sans-serif" font-size="6" lengthAdjust="spacing" textLength="26.5" x="567.75" y="131.4551">Fragment</text><line style="stroke:#A80036;stroke-width:0.75;" x1="553.75" x2="595.25" y1="137" y2="137"/><line style="stroke:#A80036;stroke-width:0.75;" x1="553.75" x2="595.25" y1="141" y2="141"/><!--MD5=[21611000fb161c6029cb0e7843f050ee]
class androidx.lifecycle.ViewModel--><rect fill="#FEFECE" filter="url(#fun58iztky2gm)" height="24" id="androidx.lifecycle.ViewModel" style="stroke:#A80036;stroke-width:0.75;" width="45.5" x="263.25" y="21"/><ellipse cx="270.75" cy="29" fill="#ADD1B2" rx="5.5" ry="5.5" style="stroke:#A80036;stroke-width:0.5;"/><path d="M271.75,27.25 Q271.8516,27 271.9688,26.875 Q272.0859,26.75 272.2188,26.75 Q272.4531,26.75 272.6016,26.8906 Q272.75,27.0313 272.75,27.3594 L272.75,28.1406 Q272.75,28.4688 272.6094,28.6094 Q272.4688,28.75 272.25,28.75 Q272.0547,28.75 271.9297,28.6641 Q271.8047,28.5781 271.75,28.3516 Q271.7266,28.1953 271.6406,28.1094 Q271.4844,27.9453 271.2031,27.8516 Q270.9219,27.75 270.6406,27.75 Q270.2891,27.75 269.9922,27.8906 Q269.7031,28.0313 269.4766,28.3438 Q269.25,28.6563 269.25,29.0859 L269.25,29.5469 Q269.25,30.0625 269.6719,30.4063 Q270.0938,30.75 270.8438,30.75 Q271.2891,30.75 271.6016,30.6484 Q271.7813,30.5938 271.9844,30.4141 Q272.1172,30.3125 272.1875,30.2813 Q272.2578,30.25 272.3438,30.25 Q272.5078,30.25 272.625,30.3828 Q272.75,30.5078 272.75,30.6875 Q272.75,30.8594 272.5781,31.0625 Q272.3281,31.3594 271.9297,31.5234 Q271.4063,31.75 270.7656,31.75 Q270.0156,31.75 269.4141,31.4531 Q268.9297,31.2188 268.5859,30.7109 Q268.25,30.2031 268.25,29.6016 L268.25,29.0547 Q268.25,28.4297 268.5469,27.8828 Q268.8516,27.3359 269.375,27.0469 Q269.9063,26.75 270.5,26.75 Q270.8594,26.75 271.1719,26.875 Q271.4844,27 271.75,27.25 Z " fill="#000000"/><text fill="#000000" font-family="sans-serif" font-size="6" lengthAdjust="spacing" textLength="29.5" x="277.75" y="31.4551">ViewModel</text><line style="stroke:#A80036;stroke-width:0.75;" x1="263.75" x2="308.25" y1="37" y2="37"/><line style="stroke:#A80036;stroke-width:0.75;" x1="263.75" x2="308.25" y1="41" y2="41"/><!--MD5=[9f0802b71f9cab8836d132acd5ee8939]
reverse link com.luckyba.myfile.images.ViewHolder to com.luckyba.myfile.images.ImagesListViewHolder--><path codeLine="58" d="M105.025,153.9 C110.73,163.56 118.465,174.765 127.5,183 C148.22,201.89 162.585,193.78 183,213 C200.88,229.83 214.745,254.715 222.88,271.66 " fill="none" id="com.luckyba.myfile.images.ViewHolder-backto-com.luckyba.myfile.images.ImagesListViewHolder" style="stroke:#A80036;stroke-width:0.5;"/><polygon fill="none" points="101.925,155.52,100.11,145.08,108.035,152.115,101.925,155.52" style="stroke:#A80036;stroke-width:0.5;"/><!--MD5=[7d24586bee4c4aadb5d0154f57043b2e]
reverse link com.luckyba.myfile.images.ClickListener to com.luckyba.myfile.images.ImagesListFragment--><path codeLine="59" d="M172.48,153.795 C178.495,163.76 186.875,175.255 197,183 C227.82,206.58 244.125,195.985 279,213 C295.755,221.175 313.11,231.025 329.34,240.91 " fill="none" id="com.luckyba.myfile.images.ClickListener-backto-com.luckyba.myfile.images.ImagesListFragment" style="stroke:#A80036;stroke-width:0.5;stroke-dasharray:7.0,7.0;"/><polygon fill="none" points="169.415,155.485,167.54,145.055,175.51,152.04,169.415,155.485" style="stroke:#A80036;stroke-width:0.5;"/><!--MD5=[b3b62436bd365886f1ac8e9671478e19]
reverse link androidx.fragment.app.Fragment to com.luckyba.myfile.images.ImagesListFragment--><path codeLine="60" d="M559.61,152.9 C552.025,162.34 542.435,173.64 533,183 C515.555,200.31 495.56,217.805 476.565,233.505 " fill="none" id="androidx.fragment.app.Fragment-backto-com.luckyba.myfile.images.ImagesListFragment" style="stroke:#A80036;stroke-width:0.5;"/><polygon fill="none" points="556.885,150.705,565.825,145.02,562.38,155.04,556.885,150.705" style="stroke:#A80036;stroke-width:0.5;"/><!--MD5=[c82a2120cd12b069f473676f8f32c377]
reverse link com.luckyba.myfile.images.ImagesListFragment to com.luckyba.myfile.images.ImagesListFragment.OnFragmentInteractionListener--><path codeLine="61" d="M403,376.195 C403,384.57 403,392.24 403,398.415 " fill="none" id="com.luckyba.myfile.images.ImagesListFragment-backto-com.luckyba.myfile.images.ImagesListFragment.OnFragmentInteractionListener" style="stroke:#A80036;stroke-width:0.5;stroke-dasharray:7.0,7.0;"/><ellipse cx="403" cy="372.675" fill="#FFFFFF" rx="4" ry="4" style="stroke:#A80036;stroke-width:0.5;"/><line style="stroke:#A80036;stroke-width:0.5;" x1="403" x2="403" y1="376.675" y2="368.675"/><line style="stroke:#A80036;stroke-width:0.5;" x1="399" x2="407" y1="372.675" y2="372.675"/><!--MD5=[80f31e31d4a43a692529717da02a6007]
reverse link com.luckyba.myfile.images.Adapter to com.luckyba.myfile.images.ImagesListAdapter--><path codeLine="62" d="M42.585,154.45 C52.065,179.01 67.98,220.245 79.79,250.845 " fill="none" id="com.luckyba.myfile.images.Adapter-backto-com.luckyba.myfile.images.ImagesListAdapter" style="stroke:#A80036;stroke-width:0.5;"/><polygon fill="none" points="39.285,155.615,38.95,145.025,45.815,153.095,39.285,155.615" style="stroke:#A80036;stroke-width:0.5;"/><!--MD5=[a7dea0f0fcbe1131fe86466a15079572]
reverse link androidx.lifecycle.ViewModel to com.luckyba.myfile.images.ImagesListViewModel--><path codeLine="63" d="M286,55.085 C286,72.67 286,97.245 286,113.955 " fill="none" id="androidx.lifecycle.ViewModel-backto-com.luckyba.myfile.images.ImagesListViewModel" style="stroke:#A80036;stroke-width:0.5;"/><polygon fill="none" points="282.5,55.05,286,45.05,289.5,55.05,282.5,55.05" style="stroke:#A80036;stroke-width:0.5;"/><!--MD5=[a8961b01a78de50a922d02233440b3ee]
@startuml
class com.luckyba.myfile.images.ImagesListViewHolder {
+ TextView lblFileName
+ ImageView imgItemIcon
}
class com.luckyba.myfile.images.ImagesListFragment {
- {static} String ARG_PARAM1
- {static} String ARG_PARAM2
- String mParam1
- String mParam2
- View mRootView
- ImagesListViewModel imagesListViewModel
- ImagesListAdapter imagesListAdapter
- ImagesListManager imagesListManager
- OnFragmentInteractionListener mListener
+ {static} ImagesListFragment newInstance(String,String)
+ void onCreate(Bundle)
+ View onCreateView(LayoutInflater,ViewGroup,Bundle)
+ void onViewCreated(View,Bundle)
+ void onButtonPressed(Uri)
+ void onAttach(Context)
+ void onDetach()
+ void onDestroy()
+ void onClick(View,int)
+ void onLongClick(View,int)
}
interface com.luckyba.myfile.images.ImagesListFragment.OnFragmentInteractionListener {
~ void onFragmentInteraction(Uri)
}
class com.luckyba.myfile.images.ImagesListManager {
- ArrayList<MediaFileListModel> imageListModelsArray
- ImagesListAdapter imagesListAdapter
- LinearLayout noMediaLayout
- RecyclerView recyclerView
- View mRootView
- ImagesListViewModel imagesListViewModel
- Activity activity
- void init()
- void getImagesList()
+ void onItemClick(View,int)
+ void onItemLongClick(View,int)
}
class com.luckyba.myfile.images.ImagesListAdapter {
- ArrayList<MediaFileListModel> mediaFileListModels
- CommonListener.ClickListener mListener
~ int THUMB_SIZE
- Context mContext
+ void setData(ArrayList<MediaFileListModel>)
+ ImagesListViewHolder onCreateViewHolder(ViewGroup,int)
+ void onBindViewHolder(ImagesListViewHolder,int)
+ int getItemCount()
}
class com.luckyba.myfile.images.ImagesListViewModel {
- FileRepository repository
+ ArrayList<MediaFileListModel> getAllInternal(DictionaryModel)
}


com.luckyba.myfile.images.ViewHolder <|- - com.luckyba.myfile.images.ImagesListViewHolder
com.luckyba.myfile.images.ClickListener <|.. com.luckyba.myfile.images.ImagesListFragment
androidx.fragment.app.Fragment <|- - com.luckyba.myfile.images.ImagesListFragment
com.luckyba.myfile.images.ImagesListFragment +.. com.luckyba.myfile.images.ImagesListFragment.OnFragmentInteractionListener
com.luckyba.myfile.images.Adapter <|- - com.luckyba.myfile.images.ImagesListAdapter
androidx.lifecycle.ViewModel <|- - com.luckyba.myfile.images.ImagesListViewModel
@enduml

PlantUML version 1.2021.00(Sun Jan 10 17:25:05 ICT 2021)
(GPL source distribution)
Java Runtime: OpenJDK Runtime Environment
JVM: OpenJDK 64-Bit Server VM
Default Encoding: Cp1252
Language: en
Country: US
--></g></svg>