<?xml version="1.0" encoding="UTF-8" standalone="no"?><svg xmlns="http://www.w3.org/2000/svg" xmlns:xlink="http://www.w3.org/1999/xlink" contentScriptType="application/ecmascript" contentStyleType="text/css" height="441px" preserveAspectRatio="none" style="width:654px;height:441px;" version="1.1" viewBox="0 0 654 441" width="654px" zoomAndPan="magnify"><defs><filter height="300%" id="fenm2vjv53sxu" width="300%" x="-1" y="-1"><feGaussianBlur result="blurOut" stdDeviation="1.0"/><feColorMatrix in="blurOut" result="blurOut2" type="matrix" values="0 0 0 0 0 0 0 0 0 0 0 0 0 0 0 0 0 0 .4 0"/><feOffset dx="2.0" dy="2.0" in="blurOut2" result="blurOut3"/><feBlend in="SourceGraphic" in2="blurOut3" mode="normal"/></filter></defs><g><!--MD5=[16366df0c6b737ccee52e7f76e134485]
cluster com.luckyba.myfile.videos--><polygon fill="#FFFFFF" filter="url(#fenm2vjv53sxu)" points="8,65,102.5,65,106,76.8047,546,76.8047,546,437.5,8,437.5,8,65" style="stroke:#000000;stroke-width:0.75;"/><line style="stroke:#000000;stroke-width:0.75;" x1="8" x2="106" y1="76.8047" y2="76.8047"/><text fill="#000000" font-family="sans-serif" font-size="7" font-weight="bold" lengthAdjust="spacing" textLength="91.5" x="10" y="73.2666">com.luckyba.myfile.videos</text><!--MD5=[9766f90424e1828585cf1d2dc254d514]
cluster androidx.fragment.app--><polygon fill="#FFFFFF" filter="url(#fenm2vjv53sxu)" points="558,103,640.5,103,644,114.8047,645.5,114.8047,645.5,153,558,153,558,103" style="stroke:#000000;stroke-width:0.75;"/><line style="stroke:#000000;stroke-width:0.75;" x1="558" x2="644" y1="114.8047" y2="114.8047"/><text fill="#000000" font-family="sans-serif" font-size="7" font-weight="bold" lengthAdjust="spacing" textLength="79.5" x="560" y="111.2666">androidx.fragment.app</text><!--MD5=[b44fd8e7153115a4ff7630ac829e4651]
cluster androidx.lifecycle--><polygon fill="#FFFFFF" filter="url(#fenm2vjv53sxu)" points="423,3,488,3,491.5,14.8047,493,14.8047,493,53,423,53,423,3" style="stroke:#000000;stroke-width:0.75;"/><line style="stroke:#000000;stroke-width:0.75;" x1="423" x2="491.5" y1="14.8047" y2="14.8047"/><text fill="#000000" font-family="sans-serif" font-size="7" font-weight="bold" lengthAdjust="spacing" textLength="62" x="425" y="11.2666">androidx.lifecycle</text><!--MD5=[873d91f852efec74f001d188758c0169]
class com.luckyba.myfile.videos.VideosListAdapter--><rect codeLine="1" fill="#FEFECE" filter="url(#fenm2vjv53sxu)" height="65.5078" id="com.luckyba.myfile.videos.VideosListAdapter" style="stroke:#A80036;stroke-width:0.75;" width="155" x="106.5" y="258"/><ellipse cx="156.875" cy="266" fill="#ADD1B2" rx="5.5" ry="5.5" style="stroke:#A80036;stroke-width:0.5;"/><path d="M157.875,264.25 Q157.9766,264 158.0938,263.875 Q158.2109,263.75 158.3438,263.75 Q158.5781,263.75 158.7266,263.8906 Q158.875,264.0313 158.875,264.3594 L158.875,265.1406 Q158.875,265.4688 158.7344,265.6094 Q158.5938,265.75 158.375,265.75 Q158.1797,265.75 158.0547,265.6641 Q157.9297,265.5781 157.875,265.3516 Q157.8516,265.1953 157.7656,265.1094 Q157.6094,264.9453 157.3281,264.8516 Q157.0469,264.75 156.7656,264.75 Q156.4141,264.75 156.1172,264.8906 Q155.8281,265.0313 155.6016,265.3438 Q155.375,265.6563 155.375,266.0859 L155.375,266.5469 Q155.375,267.0625 155.7969,267.4063 Q156.2188,267.75 156.9688,267.75 Q157.4141,267.75 157.7266,267.6484 Q157.9063,267.5938 158.1094,267.4141 Q158.2422,267.3125 158.3125,267.2813 Q158.3828,267.25 158.4688,267.25 Q158.6328,267.25 158.75,267.3828 Q158.875,267.5078 158.875,267.6875 Q158.875,267.8594 158.7031,268.0625 Q158.4531,268.3594 158.0547,268.5234 Q157.5313,268.75 156.8906,268.75 Q156.1406,268.75 155.5391,268.4531 Q155.0547,268.2188 154.7109,267.7109 Q154.375,267.2031 154.375,266.6016 L154.375,266.0547 Q154.375,265.4297 154.6719,264.8828 Q154.9766,264.3359 155.5,264.0469 Q156.0313,263.75 156.625,263.75 Q156.9844,263.75 157.2969,263.875 Q157.6094,264 157.875,264.25 Z " fill="#000000"/><text fill="#000000" font-family="sans-serif" font-size="6" lengthAdjust="spacing" textLength="50" x="167.125" y="268.4551">VideosListAdapter</text><line style="stroke:#A80036;stroke-width:0.75;" x1="107" x2="261" y1="274" y2="274"/><rect fill="none" height="3" style="stroke:#C82930;stroke-width:0.5;" width="3" x="110.5" y="278"/><text fill="#000000" font-family="sans-serif" font-size="5.5" lengthAdjust="spacing" textLength="108" x="116.5" y="281.7095">List&lt;MediaFileListModel&gt; mediaFileListModels</text><rect fill="none" height="3" style="stroke:#C82930;stroke-width:0.5;" width="3" x="110.5" y="284.918"/><text fill="#000000" font-family="sans-serif" font-size="5.5" lengthAdjust="spacing" textLength="97" x="116.5" y="288.6274">CommonListener.ClickListener mListener</text><line style="stroke:#A80036;stroke-width:0.75;" x1="107" x2="261" y1="291.8359" y2="291.8359"/><ellipse cx="112" cy="297.3359" fill="#84BE84" rx="1.5" ry="1.5" style="stroke:#038048;stroke-width:0.5;"/><text fill="#000000" font-family="sans-serif" font-size="5.5" lengthAdjust="spacing" textLength="107" x="116.5" y="299.5454">void setData(ArrayList&lt;MediaFileListModel&gt;)</text><ellipse cx="112" cy="304.2539" fill="#84BE84" rx="1.5" ry="1.5" style="stroke:#038048;stroke-width:0.5;"/><text fill="#000000" font-family="sans-serif" font-size="5.5" lengthAdjust="spacing" textLength="142" x="116.5" y="306.4634">VideoListViewHolder onCreateViewHolder(ViewGroup,int)</text><ellipse cx="112" cy="311.1719" fill="#84BE84" rx="1.5" ry="1.5" style="stroke:#038048;stroke-width:0.5;"/><text fill="#000000" font-family="sans-serif" font-size="5.5" lengthAdjust="spacing" textLength="118.5" x="116.5" y="313.3813">void onBindViewHolder(VideoListViewHolder,int)</text><ellipse cx="112" cy="318.0898" fill="#84BE84" rx="1.5" ry="1.5" style="stroke:#038048;stroke-width:0.5;"/><text fill="#000000" font-family="sans-serif" font-size="5.5" lengthAdjust="spacing" textLength="42" x="116.5" y="320.2993">int getItemCount()</text><!--MD5=[5d976becb83898d51331b174990eb489]
class com.luckyba.myfile.videos.VideosListFragment--><rect codeLine="9" fill="#FEFECE" filter="url(#fenm2vjv53sxu)" height="155.4414" id="com.luckyba.myfile.videos.VideosListFragment" style="stroke:#A80036;stroke-width:0.75;" width="147" x="332" y="213"/><ellipse cx="375.625" cy="221" fill="#ADD1B2" rx="5.5" ry="5.5" style="stroke:#A80036;stroke-width:0.5;"/><path d="M376.625,219.25 Q376.7266,219 376.8438,218.875 Q376.9609,218.75 377.0938,218.75 Q377.3281,218.75 377.4766,218.8906 Q377.625,219.0313 377.625,219.3594 L377.625,220.1406 Q377.625,220.4688 377.4844,220.6094 Q377.3438,220.75 377.125,220.75 Q376.9297,220.75 376.8047,220.6641 Q376.6797,220.5781 376.625,220.3516 Q376.6016,220.1953 376.5156,220.1094 Q376.3594,219.9453 376.0781,219.8516 Q375.7969,219.75 375.5156,219.75 Q375.1641,219.75 374.8672,219.8906 Q374.5781,220.0313 374.3516,220.3438 Q374.125,220.6563 374.125,221.0859 L374.125,221.5469 Q374.125,222.0625 374.5469,222.4063 Q374.9688,222.75 375.7188,222.75 Q376.1641,222.75 376.4766,222.6484 Q376.6563,222.5938 376.8594,222.4141 Q376.9922,222.3125 377.0625,222.2813 Q377.1328,222.25 377.2188,222.25 Q377.3828,222.25 377.5,222.3828 Q377.625,222.5078 377.625,222.6875 Q377.625,222.8594 377.4531,223.0625 Q377.2031,223.3594 376.8047,223.5234 Q376.2813,223.75 375.6406,223.75 Q374.8906,223.75 374.2891,223.4531 Q373.8047,223.2188 373.4609,222.7109 Q373.125,222.2031 373.125,221.6016 L373.125,221.0547 Q373.125,220.4297 373.4219,219.8828 Q373.7266,219.3359 374.25,219.0469 Q374.7813,218.75 375.375,218.75 Q375.7344,218.75 376.0469,218.875 Q376.3594,219 376.625,219.25 Z " fill="#000000"/><text fill="#000000" font-family="sans-serif" font-size="6" lengthAdjust="spacing" textLength="55.5" x="385.875" y="223.4551">VideosListFragment</text><line style="stroke:#A80036;stroke-width:0.75;" x1="332.5" x2="478.5" y1="229" y2="229"/><rect fill="none" height="3" style="stroke:#C82930;stroke-width:0.5;" width="3" x="336" y="233"/><text fill="#000000" font-family="sans-serif" font-size="5.5" lengthAdjust="spacing" text-decoration="underline" textLength="51.5" x="342" y="236.7095">String ARG_PARAM1</text><rect fill="none" height="3" style="stroke:#C82930;stroke-width:0.5;" width="3" x="336" y="239.918"/><text fill="#000000" font-family="sans-serif" font-size="5.5" lengthAdjust="spacing" text-decoration="underline" textLength="51.5" x="342" y="243.6274">String ARG_PARAM2</text><rect fill="none" height="3" style="stroke:#C82930;stroke-width:0.5;" width="3" x="336" y="246.8359"/><text fill="#000000" font-family="sans-serif" font-size="5.5" lengthAdjust="spacing" textLength="37.5" x="342" y="250.5454">String mParam1</text><rect fill="none" height="3" style="stroke:#C82930;stroke-width:0.5;" width="3" x="336" y="253.7539"/><text fill="#000000" font-family="sans-serif" font-size="5.5" lengthAdjust="spacing" textLength="37.5" x="342" y="257.4634">String mParam2</text><rect fill="none" height="3" style="stroke:#C82930;stroke-width:0.5;" width="3" x="336" y="260.6719"/><text fill="#000000" font-family="sans-serif" font-size="5.5" lengthAdjust="spacing" textLength="42.5" x="342" y="264.3813">View mRootView</text><rect fill="none" height="3" style="stroke:#C82930;stroke-width:0.5;" width="3" x="336" y="267.5898"/><text fill="#000000" font-family="sans-serif" font-size="5.5" lengthAdjust="spacing" textLength="88.5" x="342" y="271.2993">VideosViewModel videosViewModel</text><rect fill="none" height="3" style="stroke:#C82930;stroke-width:0.5;" width="3" x="336" y="274.5078"/><text fill="#000000" font-family="sans-serif" font-size="5.5" lengthAdjust="spacing" textLength="90.5" x="342" y="278.2173">VideosListAdapter videosListAdapter</text><rect fill="none" height="3" style="stroke:#C82930;stroke-width:0.5;" width="3" x="336" y="281.4258"/><text fill="#000000" font-family="sans-serif" font-size="5.5" lengthAdjust="spacing" textLength="102.5" x="342" y="285.1353">VideosViewManager videosViewManager</text><rect fill="none" height="3" style="stroke:#C82930;stroke-width:0.5;" width="3" x="336" y="288.3438"/><text fill="#000000" font-family="sans-serif" font-size="5.5" lengthAdjust="spacing" textLength="99" x="342" y="292.0532">OnFragmentInteractionListener mListener</text><line style="stroke:#A80036;stroke-width:0.75;" x1="332.5" x2="478.5" y1="295.2617" y2="295.2617"/><ellipse cx="337.5" cy="300.7617" fill="#84BE84" rx="1.5" ry="1.5" style="stroke:#038048;stroke-width:0.5;"/><text fill="#000000" font-family="sans-serif" font-size="5.5" lengthAdjust="spacing" text-decoration="underline" textLength="114.5" x="342" y="302.9712">VideosListFragment newInstance(String,String)</text><ellipse cx="337.5" cy="307.6797" fill="#84BE84" rx="1.5" ry="1.5" style="stroke:#038048;stroke-width:0.5;"/><text fill="#000000" font-family="sans-serif" font-size="5.5" lengthAdjust="spacing" textLength="54" x="342" y="309.8892">void onCreate(Bundle)</text><ellipse cx="337.5" cy="314.5977" fill="#84BE84" rx="1.5" ry="1.5" style="stroke:#038048;stroke-width:0.5;"/><text fill="#000000" font-family="sans-serif" font-size="5.5" lengthAdjust="spacing" textLength="134" x="342" y="316.8071">View onCreateView(LayoutInflater,ViewGroup,Bundle)</text><ellipse cx="337.5" cy="321.5156" fill="#84BE84" rx="1.5" ry="1.5" style="stroke:#038048;stroke-width:0.5;"/><text fill="#000000" font-family="sans-serif" font-size="5.5" lengthAdjust="spacing" textLength="84.5" x="342" y="323.7251">void onViewCreated(View,Bundle)</text><ellipse cx="337.5" cy="328.4336" fill="#84BE84" rx="1.5" ry="1.5" style="stroke:#038048;stroke-width:0.5;"/><text fill="#000000" font-family="sans-serif" font-size="5.5" lengthAdjust="spacing" textLength="63.5" x="342" y="330.6431">void onButtonPressed(Uri)</text><ellipse cx="337.5" cy="335.3516" fill="#84BE84" rx="1.5" ry="1.5" style="stroke:#038048;stroke-width:0.5;"/><text fill="#000000" font-family="sans-serif" font-size="5.5" lengthAdjust="spacing" textLength="56" x="342" y="337.561">void onAttach(Context)</text><ellipse cx="337.5" cy="342.2695" fill="#84BE84" rx="1.5" ry="1.5" style="stroke:#038048;stroke-width:0.5;"/><text fill="#000000" font-family="sans-serif" font-size="5.5" lengthAdjust="spacing" textLength="38.5" x="342" y="344.479">void onDetach()</text><ellipse cx="337.5" cy="349.1875" fill="#84BE84" rx="1.5" ry="1.5" style="stroke:#038048;stroke-width:0.5;"/><text fill="#000000" font-family="sans-serif" font-size="5.5" lengthAdjust="spacing" textLength="40.5" x="342" y="351.397">void onDestroy()</text><ellipse cx="337.5" cy="356.1055" fill="#84BE84" rx="1.5" ry="1.5" style="stroke:#038048;stroke-width:0.5;"/><text fill="#000000" font-family="sans-serif" font-size="5.5" lengthAdjust="spacing" textLength="52.5" x="342" y="358.3149">void onClick(View,int)</text><ellipse cx="337.5" cy="363.0234" fill="#84BE84" rx="1.5" ry="1.5" style="stroke:#038048;stroke-width:0.5;"/><text fill="#000000" font-family="sans-serif" font-size="5.5" lengthAdjust="spacing" textLength="64.5" x="342" y="365.2329">void onLongClick(View,int)</text><!--MD5=[20f1b036db955a7b6a7ca734dd913df0]
class com.luckyba.myfile.videos.VideosListFragment.OnFragmentInteractionListener--><rect codeLine="30" fill="#FEFECE" filter="url(#fenm2vjv53sxu)" height="30.918" id="com.luckyba.myfile.videos.VideosListFragment.OnFragmentInteractionListener" style="stroke:#A80036;stroke-width:0.75;" width="158" x="326.5" y="398.5"/><ellipse cx="334" cy="406.5" fill="#B4A7E5" rx="5.5" ry="5.5" style="stroke:#A80036;stroke-width:0.5;"/><path d="M334.5,405 L334.5,408 L335.5,408 L335.7422,408 L336,408.3125 L336,408.5 L336,408.6875 L335.7422,409 L335.5,409 L332.5,409 L332.2578,409 L332,408.6875 L332,408.5 L332,408.3125 L332.2578,408 L332.5,408 L333.5,408 L333.5,405 L332.5,405 L332.2578,405 L332,404.6875 L332,404.5 L332,404.3125 L332.2578,404 L332.5,404 L335.5,404 L335.7422,404 L336,404.3125 L336,404.5 L336,404.6875 L335.7422,405 L335.5,405 L334.5,405 Z " fill="#000000"/><text fill="#000000" font-family="sans-serif" font-size="6" font-style="italic" lengthAdjust="spacing" textLength="142" x="341" y="408.9551">VideosListFragment.OnFragmentInteractionListener</text><line style="stroke:#A80036;stroke-width:0.75;" x1="327" x2="484" y1="414.5" y2="414.5"/><line style="stroke:#A80036;stroke-width:0.75;" x1="327" x2="484" y1="418.5" y2="418.5"/><polygon fill="#4177AF" points="332,422,330,425,334,425" style="stroke:#1963A0;stroke-width:0.5;"/><text fill="#000000" font-family="sans-serif" font-size="5.5" lengthAdjust="spacing" textLength="75.5" x="336.5" y="426.2095">void onFragmentInteraction(Uri)</text><!--MD5=[b67bb5db7ee2f2767558729caf49bbd6]
class com.luckyba.myfile.videos.VideosViewModel--><rect codeLine="33" fill="#FEFECE" filter="url(#fenm2vjv53sxu)" height="44.7539" id="com.luckyba.myfile.videos.VideosViewModel" style="stroke:#A80036;stroke-width:0.75;" width="160" x="378" y="110.5"/><ellipse cx="431.625" cy="118.5" fill="#ADD1B2" rx="5.5" ry="5.5" style="stroke:#A80036;stroke-width:0.5;"/><path d="M432.625,116.75 Q432.7266,116.5 432.8438,116.375 Q432.9609,116.25 433.0938,116.25 Q433.3281,116.25 433.4766,116.3906 Q433.625,116.5313 433.625,116.8594 L433.625,117.6406 Q433.625,117.9688 433.4844,118.1094 Q433.3438,118.25 433.125,118.25 Q432.9297,118.25 432.8047,118.1641 Q432.6797,118.0781 432.625,117.8516 Q432.6016,117.6953 432.5156,117.6094 Q432.3594,117.4453 432.0781,117.3516 Q431.7969,117.25 431.5156,117.25 Q431.1641,117.25 430.8672,117.3906 Q430.5781,117.5313 430.3516,117.8438 Q430.125,118.1563 430.125,118.5859 L430.125,119.0469 Q430.125,119.5625 430.5469,119.9063 Q430.9688,120.25 431.7188,120.25 Q432.1641,120.25 432.4766,120.1484 Q432.6563,120.0938 432.8594,119.9141 Q432.9922,119.8125 433.0625,119.7813 Q433.1328,119.75 433.2188,119.75 Q433.3828,119.75 433.5,119.8828 Q433.625,120.0078 433.625,120.1875 Q433.625,120.3594 433.4531,120.5625 Q433.2031,120.8594 432.8047,121.0234 Q432.2813,121.25 431.6406,121.25 Q430.8906,121.25 430.2891,120.9531 Q429.8047,120.7188 429.4609,120.2109 Q429.125,119.7031 429.125,119.1016 L429.125,118.5547 Q429.125,117.9297 429.4219,117.3828 Q429.7266,116.8359 430.25,116.5469 Q430.7813,116.25 431.375,116.25 Q431.7344,116.25 432.0469,116.375 Q432.3594,116.5 432.625,116.75 Z " fill="#000000"/><text fill="#000000" font-family="sans-serif" font-size="6" lengthAdjust="spacing" textLength="48.5" x="441.875" y="120.9551">VideosViewModel</text><line style="stroke:#A80036;stroke-width:0.75;" x1="378.5" x2="537.5" y1="126.5" y2="126.5"/><rect fill="none" height="3" style="stroke:#C82930;stroke-width:0.5;" width="3" x="382" y="130.5"/><text fill="#000000" font-family="sans-serif" font-size="5.5" lengthAdjust="spacing" textLength="53.5" x="388" y="134.2095">Application application</text><rect fill="none" height="3" style="stroke:#C82930;stroke-width:0.5;" width="3" x="382" y="137.418"/><text fill="#000000" font-family="sans-serif" font-size="5.5" lengthAdjust="spacing" textLength="60" x="388" y="141.1274">FileRepository repository</text><line style="stroke:#A80036;stroke-width:0.75;" x1="378.5" x2="537.5" y1="144.3359" y2="144.3359"/><ellipse cx="383.5" cy="149.8359" fill="#84BE84" rx="1.5" ry="1.5" style="stroke:#038048;stroke-width:0.5;"/><text fill="#000000" font-family="sans-serif" font-size="5.5" lengthAdjust="spacing" textLength="147" x="388" y="152.0454">ArrayList&lt;MediaFileListModel&gt; getAllVideos(DictionaryModel)</text><!--MD5=[661806d9afba3b64e9c1e03e577c54be]
class com.luckyba.myfile.videos.VideosViewManager--><rect codeLine="38" fill="#FEFECE" filter="url(#fenm2vjv53sxu)" height="100.0977" id="com.luckyba.myfile.videos.VideosViewManager" style="stroke:#A80036;stroke-width:0.75;" width="154.5" x="205.75" y="83"/><ellipse cx="252.875" cy="91" fill="#ADD1B2" rx="5.5" ry="5.5" style="stroke:#A80036;stroke-width:0.5;"/><path d="M253.875,89.25 Q253.9766,89 254.0938,88.875 Q254.2109,88.75 254.3438,88.75 Q254.5781,88.75 254.7266,88.8906 Q254.875,89.0313 254.875,89.3594 L254.875,90.1406 Q254.875,90.4688 254.7344,90.6094 Q254.5938,90.75 254.375,90.75 Q254.1797,90.75 254.0547,90.6641 Q253.9297,90.5781 253.875,90.3516 Q253.8516,90.1953 253.7656,90.1094 Q253.6094,89.9453 253.3281,89.8516 Q253.0469,89.75 252.7656,89.75 Q252.4141,89.75 252.1172,89.8906 Q251.8281,90.0313 251.6016,90.3438 Q251.375,90.6563 251.375,91.0859 L251.375,91.5469 Q251.375,92.0625 251.7969,92.4063 Q252.2188,92.75 252.9688,92.75 Q253.4141,92.75 253.7266,92.6484 Q253.9063,92.5938 254.1094,92.4141 Q254.2422,92.3125 254.3125,92.2813 Q254.3828,92.25 254.4688,92.25 Q254.6328,92.25 254.75,92.3828 Q254.875,92.5078 254.875,92.6875 Q254.875,92.8594 254.7031,93.0625 Q254.4531,93.3594 254.0547,93.5234 Q253.5313,93.75 252.8906,93.75 Q252.1406,93.75 251.5391,93.4531 Q251.0547,93.2188 250.7109,92.7109 Q250.375,92.2031 250.375,91.6016 L250.375,91.0547 Q250.375,90.4297 250.6719,89.8828 Q250.9766,89.3359 251.5,89.0469 Q252.0313,88.75 252.625,88.75 Q252.9844,88.75 253.2969,88.875 Q253.6094,89 253.875,89.25 Z " fill="#000000"/><text fill="#000000" font-family="sans-serif" font-size="6" lengthAdjust="spacing" textLength="56" x="263.125" y="93.4551">VideosViewManager</text><line style="stroke:#A80036;stroke-width:0.75;" x1="206.25" x2="359.75" y1="99" y2="99"/><rect fill="none" height="3" style="stroke:#C82930;stroke-width:0.5;" width="3" x="209.75" y="103"/><text fill="#000000" font-family="sans-serif" font-size="5.5" lengthAdjust="spacing" textLength="42.5" x="215.75" y="106.7095">View mRootView</text><rect fill="none" height="3" style="stroke:#C82930;stroke-width:0.5;" width="3" x="209.75" y="109.918"/><text fill="#000000" font-family="sans-serif" font-size="5.5" lengthAdjust="spacing" textLength="88.5" x="215.75" y="113.6274">VideosViewModel videosViewModel</text><rect fill="none" height="3" style="stroke:#C82930;stroke-width:0.5;" width="3" x="209.75" y="116.8359"/><text fill="#000000" font-family="sans-serif" font-size="5.5" lengthAdjust="spacing" textLength="90.5" x="215.75" y="120.5454">VideosListAdapter videosListAdapter</text><rect fill="none" height="3" style="stroke:#C82930;stroke-width:0.5;" width="3" x="209.75" y="123.7539"/><text fill="#000000" font-family="sans-serif" font-size="5.5" lengthAdjust="spacing" textLength="36.5" x="215.75" y="127.4634">Activity activity</text><rect fill="none" height="3" style="stroke:#C82930;stroke-width:0.5;" width="3" x="209.75" y="130.6719"/><text fill="#000000" font-family="sans-serif" font-size="5.5" lengthAdjust="spacing" textLength="69" x="215.75" y="134.3813">RecyclerView recyclerView</text><rect fill="none" height="3" style="stroke:#C82930;stroke-width:0.5;" width="3" x="209.75" y="137.5898"/><text fill="#000000" font-family="sans-serif" font-size="5.5" lengthAdjust="spacing" textLength="141.5" x="215.75" y="141.2993">ArrayList&lt;MediaFileListModel&gt; mediaFileListModelArrayList</text><rect fill="none" height="3" style="stroke:#C82930;stroke-width:0.5;" width="3" x="209.75" y="144.5078"/><text fill="#000000" font-family="sans-serif" font-size="5.5" lengthAdjust="spacing" textLength="69.5" x="215.75" y="148.2173">LinearLayout noMediaLayout</text><line style="stroke:#A80036;stroke-width:0.75;" x1="206.25" x2="359.75" y1="151.4258" y2="151.4258"/><rect fill="#F24D5C" height="3" style="stroke:#C82930;stroke-width:0.5;" width="3" x="209.75" y="155.4258"/><text fill="#000000" font-family="sans-serif" font-size="5.5" lengthAdjust="spacing" textLength="22" x="215.75" y="159.1353">void init()</text><rect fill="#F24D5C" height="3" style="stroke:#C82930;stroke-width:0.5;" width="3" x="209.75" y="162.3438"/><text fill="#000000" font-family="sans-serif" font-size="5.5" lengthAdjust="spacing" textLength="48.5" x="215.75" y="166.0532">void getVideosList()</text><ellipse cx="211.25" cy="170.7617" fill="#84BE84" rx="1.5" ry="1.5" style="stroke:#038048;stroke-width:0.5;"/><text fill="#000000" font-family="sans-serif" font-size="5.5" lengthAdjust="spacing" textLength="62" x="215.75" y="172.9712">void onItemClick(View,int)</text><ellipse cx="211.25" cy="177.6797" fill="#84BE84" rx="1.5" ry="1.5" style="stroke:#038048;stroke-width:0.5;"/><text fill="#000000" font-family="sans-serif" font-size="5.5" lengthAdjust="spacing" textLength="74" x="215.75" y="179.8892">void onItemLongClick(View,int)</text><!--MD5=[53c003e831c0a38a0ddab94be29afb04]
class com.luckyba.myfile.videos.VideoListViewHolder--><rect codeLine="51" fill="#FEFECE" filter="url(#fenm2vjv53sxu)" height="37.8359" id="com.luckyba.myfile.videos.VideoListViewHolder" style="stroke:#A80036;stroke-width:0.75;" width="73" x="16" y="271.75"/><ellipse cx="23.5" cy="279.75" fill="#ADD1B2" rx="5.5" ry="5.5" style="stroke:#A80036;stroke-width:0.5;"/><path d="M24.5,278 Q24.6016,277.75 24.7188,277.625 Q24.8359,277.5 24.9688,277.5 Q25.2031,277.5 25.3516,277.6406 Q25.5,277.7813 25.5,278.1094 L25.5,278.8906 Q25.5,279.2188 25.3594,279.3594 Q25.2188,279.5 25,279.5 Q24.8047,279.5 24.6797,279.4141 Q24.5547,279.3281 24.5,279.1016 Q24.4766,278.9453 24.3906,278.8594 Q24.2344,278.6953 23.9531,278.6016 Q23.6719,278.5 23.3906,278.5 Q23.0391,278.5 22.7422,278.6406 Q22.4531,278.7813 22.2266,279.0938 Q22,279.4063 22,279.8359 L22,280.2969 Q22,280.8125 22.4219,281.1563 Q22.8438,281.5 23.5938,281.5 Q24.0391,281.5 24.3516,281.3984 Q24.5313,281.3438 24.7344,281.1641 Q24.8672,281.0625 24.9375,281.0313 Q25.0078,281 25.0938,281 Q25.2578,281 25.375,281.1328 Q25.5,281.2578 25.5,281.4375 Q25.5,281.6094 25.3281,281.8125 Q25.0781,282.1094 24.6797,282.2734 Q24.1563,282.5 23.5156,282.5 Q22.7656,282.5 22.1641,282.2031 Q21.6797,281.9688 21.3359,281.4609 Q21,280.9531 21,280.3516 L21,279.8047 Q21,279.1797 21.2969,278.6328 Q21.6016,278.0859 22.125,277.7969 Q22.6563,277.5 23.25,277.5 Q23.6094,277.5 23.9219,277.625 Q24.2344,277.75 24.5,278 Z " fill="#000000"/><text fill="#000000" font-family="sans-serif" font-size="6" lengthAdjust="spacing" textLength="57" x="30.5" y="282.2051">VideoListViewHolder</text><line style="stroke:#A80036;stroke-width:0.75;" x1="16.5" x2="88.5" y1="287.75" y2="287.75"/><ellipse cx="21.5" cy="293.25" fill="none" rx="1.5" ry="1.5" style="stroke:#038048;stroke-width:0.5;"/><text fill="#000000" font-family="sans-serif" font-size="5.5" lengthAdjust="spacing" textLength="51" x="26" y="295.4595">TextView tvFileName</text><ellipse cx="21.5" cy="300.168" fill="none" rx="1.5" ry="1.5" style="stroke:#038048;stroke-width:0.5;"/><text fill="#000000" font-family="sans-serif" font-size="5.5" lengthAdjust="spacing" textLength="56" x="26" y="302.3774">ImageView imgItemIcon</text><line style="stroke:#A80036;stroke-width:0.75;" x1="16.5" x2="88.5" y1="305.5859" y2="305.5859"/><!--MD5=[2f8b7116fa876ea84df89221020e96f2]
class com.luckyba.myfile.videos.Adapter--><rect fill="#FEFECE" filter="url(#fenm2vjv53sxu)" height="24" id="com.luckyba.myfile.videos.Adapter" style="stroke:#A80036;stroke-width:0.75;" width="37" x="81.5" y="121"/><ellipse cx="89" cy="129" fill="#ADD1B2" rx="5.5" ry="5.5" style="stroke:#A80036;stroke-width:0.5;"/><path d="M90,127.25 Q90.1016,127 90.2188,126.875 Q90.3359,126.75 90.4688,126.75 Q90.7031,126.75 90.8516,126.8906 Q91,127.0313 91,127.3594 L91,128.1406 Q91,128.4688 90.8594,128.6094 Q90.7188,128.75 90.5,128.75 Q90.3047,128.75 90.1797,128.6641 Q90.0547,128.5781 90,128.3516 Q89.9766,128.1953 89.8906,128.1094 Q89.7344,127.9453 89.4531,127.8516 Q89.1719,127.75 88.8906,127.75 Q88.5391,127.75 88.2422,127.8906 Q87.9531,128.0313 87.7266,128.3438 Q87.5,128.6563 87.5,129.0859 L87.5,129.5469 Q87.5,130.0625 87.9219,130.4063 Q88.3438,130.75 89.0938,130.75 Q89.5391,130.75 89.8516,130.6484 Q90.0313,130.5938 90.2344,130.4141 Q90.3672,130.3125 90.4375,130.2813 Q90.5078,130.25 90.5938,130.25 Q90.7578,130.25 90.875,130.3828 Q91,130.5078 91,130.6875 Q91,130.8594 90.8281,131.0625 Q90.5781,131.3594 90.1797,131.5234 Q89.6563,131.75 89.0156,131.75 Q88.2656,131.75 87.6641,131.4531 Q87.1797,131.2188 86.8359,130.7109 Q86.5,130.2031 86.5,129.6016 L86.5,129.0547 Q86.5,128.4297 86.7969,127.8828 Q87.1016,127.3359 87.625,127.0469 Q88.1563,126.75 88.75,126.75 Q89.1094,126.75 89.4219,126.875 Q89.7344,127 90,127.25 Z " fill="#000000"/><text fill="#000000" font-family="sans-serif" font-size="6" lengthAdjust="spacing" textLength="21" x="96" y="131.4551">Adapter</text><line style="stroke:#A80036;stroke-width:0.75;" x1="82" x2="118" y1="137" y2="137"/><line style="stroke:#A80036;stroke-width:0.75;" x1="82" x2="118" y1="141" y2="141"/><!--MD5=[c48f9ef46db90615f79151373e5beb4a]
class com.luckyba.myfile.videos.ClickListener--><rect fill="#FEFECE" filter="url(#fenm2vjv53sxu)" height="24" id="com.luckyba.myfile.videos.ClickListener" style="stroke:#A80036;stroke-width:0.75;" width="52" x="136" y="121"/><ellipse cx="143.5" cy="129" fill="#ADD1B2" rx="5.5" ry="5.5" style="stroke:#A80036;stroke-width:0.5;"/><path d="M144.5,127.25 Q144.6016,127 144.7188,126.875 Q144.8359,126.75 144.9688,126.75 Q145.2031,126.75 145.3516,126.8906 Q145.5,127.0313 145.5,127.3594 L145.5,128.1406 Q145.5,128.4688 145.3594,128.6094 Q145.2188,128.75 145,128.75 Q144.8047,128.75 144.6797,128.6641 Q144.5547,128.5781 144.5,128.3516 Q144.4766,128.1953 144.3906,128.1094 Q144.2344,127.9453 143.9531,127.8516 Q143.6719,127.75 143.3906,127.75 Q143.0391,127.75 142.7422,127.8906 Q142.4531,128.0313 142.2266,128.3438 Q142,128.6563 142,129.0859 L142,129.5469 Q142,130.0625 142.4219,130.4063 Q142.8438,130.75 143.5938,130.75 Q144.0391,130.75 144.3516,130.6484 Q144.5313,130.5938 144.7344,130.4141 Q144.8672,130.3125 144.9375,130.2813 Q145.0078,130.25 145.0938,130.25 Q145.2578,130.25 145.375,130.3828 Q145.5,130.5078 145.5,130.6875 Q145.5,130.8594 145.3281,131.0625 Q145.0781,131.3594 144.6797,131.5234 Q144.1563,131.75 143.5156,131.75 Q142.7656,131.75 142.1641,131.4531 Q141.6797,131.2188 141.3359,130.7109 Q141,130.2031 141,129.6016 L141,129.0547 Q141,128.4297 141.2969,127.8828 Q141.6016,127.3359 142.125,127.0469 Q142.6563,126.75 143.25,126.75 Q143.6094,126.75 143.9219,126.875 Q144.2344,127 144.5,127.25 Z " fill="#000000"/><text fill="#000000" font-family="sans-serif" font-size="6" lengthAdjust="spacing" textLength="36" x="150.5" y="131.4551">ClickListener</text><line style="stroke:#A80036;stroke-width:0.75;" x1="136.5" x2="187.5" y1="137" y2="137"/><line style="stroke:#A80036;stroke-width:0.75;" x1="136.5" x2="187.5" y1="141" y2="141"/><!--MD5=[0e518d5a48ce0ee88f122777ce6d7983]
class com.luckyba.myfile.videos.ViewHolder--><rect fill="#FEFECE" filter="url(#fenm2vjv53sxu)" height="24" id="com.luckyba.myfile.videos.ViewHolder" style="stroke:#A80036;stroke-width:0.75;" width="47.5" x="16.25" y="121"/><ellipse cx="23.75" cy="129" fill="#ADD1B2" rx="5.5" ry="5.5" style="stroke:#A80036;stroke-width:0.5;"/><path d="M24.75,127.25 Q24.8516,127 24.9688,126.875 Q25.0859,126.75 25.2188,126.75 Q25.4531,126.75 25.6016,126.8906 Q25.75,127.0313 25.75,127.3594 L25.75,128.1406 Q25.75,128.4688 25.6094,128.6094 Q25.4688,128.75 25.25,128.75 Q25.0547,128.75 24.9297,128.6641 Q24.8047,128.5781 24.75,128.3516 Q24.7266,128.1953 24.6406,128.1094 Q24.4844,127.9453 24.2031,127.8516 Q23.9219,127.75 23.6406,127.75 Q23.2891,127.75 22.9922,127.8906 Q22.7031,128.0313 22.4766,128.3438 Q22.25,128.6563 22.25,129.0859 L22.25,129.5469 Q22.25,130.0625 22.6719,130.4063 Q23.0938,130.75 23.8438,130.75 Q24.2891,130.75 24.6016,130.6484 Q24.7813,130.5938 24.9844,130.4141 Q25.1172,130.3125 25.1875,130.2813 Q25.2578,130.25 25.3438,130.25 Q25.5078,130.25 25.625,130.3828 Q25.75,130.5078 25.75,130.6875 Q25.75,130.8594 25.5781,131.0625 Q25.3281,131.3594 24.9297,131.5234 Q24.4063,131.75 23.7656,131.75 Q23.0156,131.75 22.4141,131.4531 Q21.9297,131.2188 21.5859,130.7109 Q21.25,130.2031 21.25,129.6016 L21.25,129.0547 Q21.25,128.4297 21.5469,127.8828 Q21.8516,127.3359 22.375,127.0469 Q22.9063,126.75 23.5,126.75 Q23.8594,126.75 24.1719,126.875 Q24.4844,127 24.75,127.25 Z " fill="#000000"/><text fill="#000000" font-family="sans-serif" font-size="6" lengthAdjust="spacing" textLength="31.5" x="30.75" y="131.4551">ViewHolder</text><line style="stroke:#A80036;stroke-width:0.75;" x1="16.75" x2="63.25" y1="137" y2="137"/><line style="stroke:#A80036;stroke-width:0.75;" x1="16.75" x2="63.25" y1="141" y2="141"/><!--MD5=[4ef56d7331cec24f2808280c59a4eb97]
class androidx.fragment.app.Fragment--><rect fill="#FEFECE" filter="url(#fenm2vjv53sxu)" height="24" id="androidx.fragment.app.Fragment" style="stroke:#A80036;stroke-width:0.75;" width="42.5" x="566.25" y="121"/><ellipse cx="573.75" cy="129" fill="#ADD1B2" rx="5.5" ry="5.5" style="stroke:#A80036;stroke-width:0.5;"/><path d="M574.75,127.25 Q574.8516,127 574.9688,126.875 Q575.0859,126.75 575.2188,126.75 Q575.4531,126.75 575.6016,126.8906 Q575.75,127.0313 575.75,127.3594 L575.75,128.1406 Q575.75,128.4688 575.6094,128.6094 Q575.4688,128.75 575.25,128.75 Q575.0547,128.75 574.9297,128.6641 Q574.8047,128.5781 574.75,128.3516 Q574.7266,128.1953 574.6406,128.1094 Q574.4844,127.9453 574.2031,127.8516 Q573.9219,127.75 573.6406,127.75 Q573.2891,127.75 572.9922,127.8906 Q572.7031,128.0313 572.4766,128.3438 Q572.25,128.6563 572.25,129.0859 L572.25,129.5469 Q572.25,130.0625 572.6719,130.4063 Q573.0938,130.75 573.8438,130.75 Q574.2891,130.75 574.6016,130.6484 Q574.7813,130.5938 574.9844,130.4141 Q575.1172,130.3125 575.1875,130.2813 Q575.2578,130.25 575.3438,130.25 Q575.5078,130.25 575.625,130.3828 Q575.75,130.5078 575.75,130.6875 Q575.75,130.8594 575.5781,131.0625 Q575.3281,131.3594 574.9297,131.5234 Q574.4063,131.75 573.7656,131.75 Q573.0156,131.75 572.4141,131.4531 Q571.9297,131.2188 571.5859,130.7109 Q571.25,130.2031 571.25,129.6016 L571.25,129.0547 Q571.25,128.4297 571.5469,127.8828 Q571.8516,127.3359 572.375,127.0469 Q572.9063,126.75 573.5,126.75 Q573.8594,126.75 574.1719,126.875 Q574.4844,127 574.75,127.25 Z " fill="#000000"/><text fill="#000000" font-family="sans-serif" font-size="6" lengthAdjust="spacing" textLength="26.5" x="580.75" y="131.4551">Fragment</text><line style="stroke:#A80036;stroke-width:0.75;" x1="566.75" x2="608.25" y1="137" y2="137"/><line style="stroke:#A80036;stroke-width:0.75;" x1="566.75" x2="608.25" y1="141" y2="141"/><!--MD5=[21611000fb161c6029cb0e7843f050ee]
class androidx.lifecycle.ViewModel--><rect fill="#FEFECE" filter="url(#fenm2vjv53sxu)" height="24" id="androidx.lifecycle.ViewModel" style="stroke:#A80036;stroke-width:0.75;" width="45.5" x="435.25" y="21"/><ellipse cx="442.75" cy="29" fill="#ADD1B2" rx="5.5" ry="5.5" style="stroke:#A80036;stroke-width:0.5;"/><path d="M443.75,27.25 Q443.8516,27 443.9688,26.875 Q444.0859,26.75 444.2188,26.75 Q444.4531,26.75 444.6016,26.8906 Q444.75,27.0313 444.75,27.3594 L444.75,28.1406 Q444.75,28.4688 444.6094,28.6094 Q444.4688,28.75 444.25,28.75 Q444.0547,28.75 443.9297,28.6641 Q443.8047,28.5781 443.75,28.3516 Q443.7266,28.1953 443.6406,28.1094 Q443.4844,27.9453 443.2031,27.8516 Q442.9219,27.75 442.6406,27.75 Q442.2891,27.75 441.9922,27.8906 Q441.7031,28.0313 441.4766,28.3438 Q441.25,28.6563 441.25,29.0859 L441.25,29.5469 Q441.25,30.0625 441.6719,30.4063 Q442.0938,30.75 442.8438,30.75 Q443.2891,30.75 443.6016,30.6484 Q443.7813,30.5938 443.9844,30.4141 Q444.1172,30.3125 444.1875,30.2813 Q444.2578,30.25 444.3438,30.25 Q444.5078,30.25 444.625,30.3828 Q444.75,30.5078 444.75,30.6875 Q444.75,30.8594 444.5781,31.0625 Q444.3281,31.3594 443.9297,31.5234 Q443.4063,31.75 442.7656,31.75 Q442.0156,31.75 441.4141,31.4531 Q440.9297,31.2188 440.5859,30.7109 Q440.25,30.2031 440.25,29.6016 L440.25,29.0547 Q440.25,28.4297 440.5469,27.8828 Q440.8516,27.3359 441.375,27.0469 Q441.9063,26.75 442.5,26.75 Q442.8594,26.75 443.1719,26.875 Q443.4844,27 443.75,27.25 Z " fill="#000000"/><text fill="#000000" font-family="sans-serif" font-size="6" lengthAdjust="spacing" textLength="29.5" x="449.75" y="31.4551">ViewModel</text><line style="stroke:#A80036;stroke-width:0.75;" x1="435.75" x2="480.25" y1="37" y2="37"/><line style="stroke:#A80036;stroke-width:0.75;" x1="435.75" x2="480.25" y1="41" y2="41"/><!--MD5=[6b5112fbb6aa012f3f732d0821b93d5e]
reverse link com.luckyba.myfile.videos.Adapter to com.luckyba.myfile.videos.VideosListAdapter--><path codeLine="57" d="M110.96,153.95 C125.115,180.37 149.925,226.665 166.655,257.885 " fill="none" id="com.luckyba.myfile.videos.Adapter-backto-com.luckyba.myfile.videos.VideosListAdapter" style="stroke:#A80036;stroke-width:0.5;"/><polygon fill="none" points="107.815,155.495,106.175,145.025,113.985,152.185,107.815,155.495" style="stroke:#A80036;stroke-width:0.5;"/><!--MD5=[af35689f6f373f8460fd985334fc29c4]
reverse link com.luckyba.myfile.videos.ClickListener to com.luckyba.myfile.videos.VideosListFragment--><path codeLine="58" d="M172.805,153.98 C178.84,163.825 187.135,175.16 197,183 C224.625,204.95 238.785,197.54 270.5,213 C290.765,222.88 312.175,234.535 331.825,245.755 " fill="none" id="com.luckyba.myfile.videos.ClickListener-backto-com.luckyba.myfile.videos.VideosListFragment" style="stroke:#A80036;stroke-width:0.5;stroke-dasharray:7.0,7.0;"/><polygon fill="none" points="169.685,155.575,167.735,145.16,175.755,152.085,169.685,155.575" style="stroke:#A80036;stroke-width:0.5;"/><!--MD5=[441f8e1145fcf4b713aa314c08fe0977]
reverse link androidx.fragment.app.Fragment to com.luckyba.myfile.videos.VideosListFragment--><path codeLine="59" d="M572.76,153.055 C565.215,162.53 555.61,173.82 546,183 C525.475,202.605 501.44,222.05 479.11,238.88 " fill="none" id="androidx.fragment.app.Fragment-backto-com.luckyba.myfile.videos.VideosListFragment" style="stroke:#A80036;stroke-width:0.5;"/><polygon fill="none" points="570.025,150.87,578.935,145.13,575.55,155.17,570.025,150.87" style="stroke:#A80036;stroke-width:0.5;"/><!--MD5=[45c2d8077dd4f753403af426568bcd95]
reverse link com.luckyba.myfile.videos.VideosListFragment to com.luckyba.myfile.videos.VideosListFragment.OnFragmentInteractionListener--><path codeLine="60" d="M405.5,376.195 C405.5,384.57 405.5,392.24 405.5,398.415 " fill="none" id="com.luckyba.myfile.videos.VideosListFragment-backto-com.luckyba.myfile.videos.VideosListFragment.OnFragmentInteractionListener" style="stroke:#A80036;stroke-width:0.5;stroke-dasharray:7.0,7.0;"/><ellipse cx="405.5" cy="372.675" fill="#FFFFFF" rx="4" ry="4" style="stroke:#A80036;stroke-width:0.5;"/><line style="stroke:#A80036;stroke-width:0.5;" x1="405.5" x2="405.5" y1="376.675" y2="368.675"/><line style="stroke:#A80036;stroke-width:0.5;" x1="401.5" x2="409.5" y1="372.675" y2="372.675"/><!--MD5=[73f6b1e9dad5523d7b927a160c51caa8]
reverse link androidx.lifecycle.ViewModel to com.luckyba.myfile.videos.VideosViewModel--><path codeLine="61" d="M458,55.275 C458,71.625 458,93.935 458,110.37 " fill="none" id="androidx.lifecycle.ViewModel-backto-com.luckyba.myfile.videos.VideosViewModel" style="stroke:#A80036;stroke-width:0.5;"/><polygon fill="none" points="454.5,55.05,458,45.05,461.5,55.05,454.5,55.05" style="stroke:#A80036;stroke-width:0.5;"/><!--MD5=[74ecff8bfe8738a90b501293f5050321]
reverse link com.luckyba.myfile.videos.ViewHolder to com.luckyba.myfile.videos.VideoListViewHolder--><path codeLine="62" d="M41.73,155.185 C44.195,186.135 48.69,242.455 51.015,271.625 " fill="none" id="com.luckyba.myfile.videos.ViewHolder-backto-com.luckyba.myfile.videos.VideoListViewHolder" style="stroke:#A80036;stroke-width:0.5;"/><polygon fill="none" points="38.225,155.275,40.92,145.025,45.205,154.715,38.225,155.275" style="stroke:#A80036;stroke-width:0.5;"/><!--MD5=[d9fa4197c67b62e075d226eaed8f5e79]
@startuml
class com.luckyba.myfile.videos.VideosListAdapter {
- List<MediaFileListModel> mediaFileListModels
- CommonListener.ClickListener mListener
+ void setData(ArrayList<MediaFileListModel>)
+ VideoListViewHolder onCreateViewHolder(ViewGroup,int)
+ void onBindViewHolder(VideoListViewHolder,int)
+ int getItemCount()
}
class com.luckyba.myfile.videos.VideosListFragment {
- {static} String ARG_PARAM1
- {static} String ARG_PARAM2
- String mParam1
- String mParam2
- View mRootView
- VideosViewModel videosViewModel
- VideosListAdapter videosListAdapter
- VideosViewManager videosViewManager
- OnFragmentInteractionListener mListener
+ {static} VideosListFragment newInstance(String,String)
+ void onCreate(Bundle)
+ View onCreateView(LayoutInflater,ViewGroup,Bundle)
+ void onViewCreated(View,Bundle)
+ void onButtonPressed(Uri)
+ void onAttach(Context)
+ void onDetach()
+ void onDestroy()
+ void onClick(View,int)
+ void onLongClick(View,int)
}
interface com.luckyba.myfile.videos.VideosListFragment.OnFragmentInteractionListener {
~ void onFragmentInteraction(Uri)
}
class com.luckyba.myfile.videos.VideosViewModel {
- Application application
- FileRepository repository
+ ArrayList<MediaFileListModel> getAllVideos(DictionaryModel)
}
class com.luckyba.myfile.videos.VideosViewManager {
- View mRootView
- VideosViewModel videosViewModel
- VideosListAdapter videosListAdapter
- Activity activity
- RecyclerView recyclerView
- ArrayList<MediaFileListModel> mediaFileListModelArrayList
- LinearLayout noMediaLayout
- void init()
- void getVideosList()
+ void onItemClick(View,int)
+ void onItemLongClick(View,int)
}
class com.luckyba.myfile.videos.VideoListViewHolder {
+ TextView tvFileName
+ ImageView imgItemIcon
}


com.luckyba.myfile.videos.Adapter <|- - com.luckyba.myfile.videos.VideosListAdapter
com.luckyba.myfile.videos.ClickListener <|.. com.luckyba.myfile.videos.VideosListFragment
androidx.fragment.app.Fragment <|- - com.luckyba.myfile.videos.VideosListFragment
com.luckyba.myfile.videos.VideosListFragment +.. com.luckyba.myfile.videos.VideosListFragment.OnFragmentInteractionListener
androidx.lifecycle.ViewModel <|- - com.luckyba.myfile.videos.VideosViewModel
com.luckyba.myfile.videos.ViewHolder <|- - com.luckyba.myfile.videos.VideoListViewHolder
@enduml

PlantUML version 1.2021.00(Sun Jan 10 17:25:05 ICT 2021)
(GPL source distribution)
Java Runtime: OpenJDK Runtime Environment
JVM: OpenJDK 64-Bit Server VM
Default Encoding: Cp1252
Language: en
Country: US
--></g></svg>